<svg width="360" height="99" viewBox="0 0 360 99" fill="none" xmlns="http://www.w3.org/2000/svg">
<path fill-rule="evenodd" clip-rule="evenodd" d="M103.823 30.0097C101.311 30.0097 94.8578 30.0097 89.9659 30.0097C89.2354 30.0097 88.6613 30.5838 88.6613 31.3147V49.2168C88.6613 49.9214 89.2354 50.5219 89.9659 50.5219C90.6962 50.5219 91.271 49.9214 91.271 49.2168V32.4683H102.519V49.2168C102.519 49.9168 103.118 50.5219 103.823 50.5219C104.554 50.5219 105.128 49.9214 105.128 49.2168V31.3147C105.128 30.5838 104.554 30.0097 103.823 30.0097ZM343.03 26.4097H347.674C348.371 26.4097 348.94 26.9796 348.94 27.6758V27.6766C348.94 28.3731 348.371 28.9427 347.674 28.9427H343.03C342.334 28.9427 341.764 28.3731 341.764 27.6766V27.6758C341.764 26.9796 342.334 26.4097 343.03 26.4097ZM252.542 30.0097C250.03 30.0097 243.577 30.0097 238.684 30.0097C237.954 30.0097 237.381 30.5838 237.381 31.3147V49.2168C237.381 49.9214 237.954 50.5219 238.684 50.5219C239.416 50.5219 239.99 49.9214 239.99 49.2168V32.4683H251.237V49.2168C251.237 49.9168 251.837 50.5219 252.542 50.5219C253.273 50.5219 253.847 49.9214 253.847 49.2168V31.3147C253.847 30.5838 253.273 30.0097 252.542 30.0097ZM338.026 50.6523C338.417 50.6523 338.782 50.4694 339.043 50.1821L351.648 35.0206V49.3215C351.648 50.0517 352.222 50.6259 352.953 50.6259C353.683 50.6259 354.258 50.0517 354.258 49.3215V31.4191C354.258 30.871 353.919 30.3755 353.397 30.1926C352.875 30.0097 352.301 30.1661 351.961 30.5838L339.331 45.72V31.4444C339.331 30.7142 338.757 30.1397 338.026 30.1397C337.321 30.1397 336.721 30.7142 336.721 31.4444V49.3476C336.721 49.8957 337.086 50.3651 337.582 50.5737C337.739 50.6259 337.895 50.6523 338.026 50.6523ZM323.381 51.0174C321.946 51.0174 320.537 50.7306 319.206 50.1568C317.927 49.6088 316.78 48.8514 315.787 47.86C314.822 46.8679 314.038 45.7461 313.491 44.4671C312.943 43.1624 312.656 41.7791 312.656 40.3701C312.656 38.9346 312.943 37.5521 313.516 36.2474C314.065 34.9945 314.848 33.8463 315.84 32.8806C316.831 31.8885 317.979 31.1318 319.258 30.5838C320.589 30.0357 321.998 29.7493 323.46 29.7493C326.304 29.7493 328.966 30.871 330.949 32.9067C331.915 33.872 332.646 35.0206 333.168 36.2727C333.715 37.5774 333.976 38.9611 333.976 40.3701C333.976 41.806 333.715 43.1881 333.168 44.4671C332.646 45.7461 331.889 46.8951 330.923 47.86C328.914 49.8957 326.252 51.0174 323.381 51.0174ZM323.46 32.3586C322.363 32.3586 321.293 32.5673 320.276 32.9845C319.284 33.4022 318.423 33.9759 317.666 34.7333C316.91 35.4647 316.309 36.3249 315.917 37.2909C315.474 38.2562 315.265 39.3001 315.265 40.3701C315.265 41.4397 315.474 42.4579 315.892 43.4493C316.309 44.415 316.883 45.2759 317.641 46.0073C319.18 47.5467 321.216 48.408 323.381 48.408C325.548 48.408 327.557 47.5467 329.07 46.0337C329.801 45.3024 330.349 44.4414 330.766 43.4757C331.158 42.4836 331.367 41.4397 331.367 40.3701C331.367 38.2305 330.558 36.2209 329.097 34.7333C327.609 33.1939 325.6 32.3586 323.46 32.3586ZM296.548 50.5737C295.844 50.5737 295.243 49.9996 295.243 49.269V31.3669C295.243 30.6359 295.844 30.0622 296.548 30.0622H304.299C304.403 30.0622 305.029 30.0622 305.839 30.2705C306.987 30.5577 308.005 31.1318 308.787 31.8885C309.362 32.463 309.831 33.1678 310.145 33.9759C310.484 34.8633 310.667 35.8815 310.667 37.0041C310.667 39.4831 309.623 41.3619 307.666 42.4836C306.256 43.2928 304.378 43.684 302.054 43.684C301.35 43.684 300.75 43.1103 300.75 42.3797C300.75 41.6491 301.35 41.075 302.054 41.075C303.908 41.075 305.368 40.7877 306.36 40.2133C307.509 39.5609 308.057 38.5435 308.057 37.0041C308.057 35.9594 307.848 35.0984 307.482 34.4461C307.195 33.9241 306.778 33.5329 306.282 33.2457C305.343 32.6973 304.378 32.6712 304.299 32.6712H297.853V49.269C297.853 49.9996 297.279 50.5737 296.548 50.5737ZM291.043 30.0622H276.977C276.246 30.0622 275.673 30.6359 275.673 31.3669C275.673 32.0975 276.246 32.6712 276.977 32.6712H282.718V49.269C282.718 49.9996 283.292 50.5737 284.023 50.5737C284.728 50.5737 285.328 49.9996 285.328 49.269V32.6712H291.043C291.773 32.6712 292.348 32.0975 292.348 31.3669C292.348 30.6359 291.773 30.0622 291.043 30.0622ZM266.953 50.9135C265.492 50.9135 264.082 50.6259 262.751 50.0517C261.499 49.5045 260.35 48.7471 259.359 47.7553C258.367 46.79 257.61 45.6418 257.062 44.3636C256.488 43.0585 256.228 41.6752 256.228 40.2654C256.228 38.8307 256.514 37.447 257.062 36.1423C257.61 34.8898 258.393 33.7412 259.385 32.7763C260.377 31.7842 261.551 31.0267 262.829 30.4795C264.16 29.9314 265.57 29.6446 267.005 29.6446C269.354 29.6446 271.546 30.3755 273.373 31.7842C273.947 32.2283 274.051 33.0371 273.634 33.6108C273.19 34.1853 272.355 34.2896 271.807 33.872C270.424 32.802 268.78 32.2536 267.005 32.2536C265.909 32.2536 264.839 32.463 263.822 32.8806C262.855 33.2982 261.968 33.872 261.212 34.629C260.48 35.3596 259.881 36.2209 259.463 37.187C259.045 38.1519 258.837 39.1958 258.837 40.2654C258.837 41.3354 259.045 42.354 259.463 43.345C259.881 44.3106 260.455 45.1716 261.212 45.9026C262.751 47.4427 264.787 48.3037 266.953 48.3037C267.918 48.3037 268.832 48.1208 269.719 47.8075C270.58 47.4949 271.363 47.0243 272.068 46.451C272.616 45.9808 273.425 46.0594 273.894 46.6071C274.365 47.1551 274.286 47.9904 273.738 48.4341C272.798 49.2168 271.754 49.817 270.633 50.2343C269.459 50.6788 268.206 50.9135 266.953 50.9135ZM221.105 30.0622C220.401 30.0622 219.801 30.6367 219.801 31.3669V49.269C219.801 50.0003 220.401 50.5745 221.105 50.5745H228.856C228.961 50.5745 229.587 50.5745 230.397 50.3654C231.544 50.0782 232.562 49.5045 233.345 48.7474C233.919 48.1733 234.388 47.4688 234.702 46.6608C235.042 45.7729 235.225 44.7544 235.225 43.6326C235.225 41.1536 234.18 39.2744 232.223 38.1523C230.813 37.3431 228.934 36.9515 226.612 36.9515C225.907 36.9515 225.307 37.526 225.307 38.2562C225.307 38.9876 225.907 39.5609 226.612 39.5609C228.465 39.5609 229.926 39.8489 230.919 40.423C232.066 41.075 232.614 42.0924 232.614 43.6326C232.614 44.6765 232.406 45.5379 232.04 46.1902C231.753 46.7122 231.335 47.1033 230.84 47.3906C229.9 47.939 228.934 47.9643 228.856 47.9643H222.41V31.3669C222.41 30.6367 221.837 30.0622 221.105 30.0622ZM208.464 29.7746C207.916 29.7746 207.447 30.0879 207.238 30.5834L199.774 48.6427C199.513 49.2943 199.826 50.0517 200.479 50.339C201.157 50.6259 201.914 50.2872 202.201 49.6341L208.464 34.4979L214.732 49.6341C214.993 50.2872 215.776 50.6259 216.429 50.339C217.107 50.0517 217.42 49.2943 217.133 48.6427L209.664 30.5834C209.456 30.0879 208.986 29.7746 208.464 29.7746ZM178.917 50.5737C178.656 50.5737 178.369 50.4962 178.134 50.3129C177.638 49.9478 177.456 49.269 177.742 48.6945L186.429 30.7928C186.663 30.3491 187.107 30.0622 187.603 30.0622C188.099 30.0622 188.569 30.3491 188.777 30.7928L197.52 48.6688C197.833 49.2951 197.572 50.0778 196.919 50.3915C196.267 50.7306 195.484 50.4433 195.171 49.817L193.135 45.6157C191.778 45.2234 190.343 45.1716 188.803 45.4589C187.368 45.72 185.885 46.2416 184.345 47.0512C181.683 48.4598 179.83 50.1821 179.805 50.2086C179.569 50.4433 179.23 50.5737 178.917 50.5737ZM187.603 34.341L182.362 45.1716C182.596 45.0416 182.832 44.9112 183.092 44.7804C184.841 43.8412 186.611 43.2146 188.308 42.9016C189.482 42.693 190.604 42.6148 191.7 42.7191L187.603 34.341ZM163.771 50.5737H163.776H163.804H163.811C164.525 50.5559 165.082 49.9886 165.082 49.269V32.6712H171.527C171.605 32.6712 172.571 32.6973 173.51 33.2457C174.006 33.5329 174.424 33.9241 174.711 34.4461C175.076 35.0984 175.285 35.9594 175.285 37.0041C175.285 38.5435 174.737 39.5609 173.588 40.2133C172.597 40.7877 171.136 41.075 169.283 41.075C168.578 41.075 167.978 41.6491 167.978 42.3797C167.978 43.1103 168.578 43.684 169.283 43.684C171.605 43.684 173.484 43.2928 174.894 42.4836C176.851 41.3619 177.895 39.4831 177.895 37.0041C177.895 35.8815 177.712 34.8633 177.373 33.9759C177.059 33.1678 176.59 32.463 176.016 31.8885C175.233 31.1318 174.215 30.5577 173.067 30.2705C172.258 30.0622 171.632 30.0622 171.527 30.0622H163.776H163.771H156.02C155.915 30.0622 155.289 30.0622 154.481 30.2705C153.332 30.5577 152.314 31.1318 151.532 31.8885C150.957 32.463 150.487 33.1678 150.174 33.9759C149.835 34.8633 149.652 35.8815 149.652 37.0041C149.652 39.4831 150.696 41.3619 152.653 42.4836C154.063 43.2928 155.941 43.684 158.264 43.684C158.968 43.684 159.569 43.1103 159.569 42.3797C159.569 41.6491 158.968 41.075 158.264 41.075C156.412 41.075 154.95 40.7877 153.958 40.2133C152.81 39.5609 152.262 38.5435 152.262 37.0041C152.262 35.9594 152.471 35.0984 152.836 34.4461C153.123 33.9241 153.541 33.5329 154.037 33.2457C154.976 32.6973 155.941 32.6712 156.02 32.6712H162.466V49.269C162.466 49.9886 163.022 50.5559 163.736 50.5737H163.744H163.771ZM137.421 51.0174C135.985 51.0174 134.576 50.7306 133.246 50.1568C131.966 49.6088 130.818 48.8514 129.826 47.86C128.861 46.8679 128.078 45.7461 127.53 44.4671C126.982 43.1624 126.695 41.7791 126.695 40.3701C126.695 38.9346 126.982 37.5521 127.556 36.2474C128.104 34.9945 128.887 33.8463 129.879 32.8806C130.87 31.8885 132.019 31.1318 133.297 30.5838C134.629 30.0357 136.037 29.7493 137.499 29.7493C140.343 29.7493 143.006 30.871 144.989 32.9067C145.954 33.872 146.685 35.0206 147.208 36.2727C147.755 37.5774 148.016 38.9611 148.016 40.3701C148.016 41.806 147.755 43.1881 147.208 44.4671C146.685 45.7461 145.928 46.8951 144.963 47.86C142.954 49.8957 140.292 51.0174 137.421 51.0174ZM137.499 32.3586C136.403 32.3586 135.333 32.5673 134.316 32.9845C133.324 33.4022 132.463 33.9759 131.706 34.7333C130.949 35.4647 130.349 36.3249 129.957 37.2909C129.513 38.2562 129.305 39.3001 129.305 40.3701C129.305 41.4397 129.513 42.4579 129.931 43.4493C130.349 44.415 130.923 45.2759 131.679 46.0073C133.219 47.5467 135.255 48.408 137.421 48.408C139.587 48.408 141.597 47.5467 143.109 46.0337C143.84 45.3024 144.389 44.4414 144.806 43.4757C145.198 42.4836 145.406 41.4397 145.406 40.3701C145.406 38.2305 144.597 36.2209 143.136 34.7333C141.648 33.1939 139.638 32.3586 137.499 32.3586ZM110.608 50.5737C109.903 50.5737 109.304 49.9996 109.304 49.269V31.3669C109.304 30.6359 109.903 30.0622 110.608 30.0622H118.359C118.464 30.0622 119.09 30.0622 119.899 30.2705C121.047 30.5577 122.065 31.1318 122.848 31.8885C123.422 32.463 123.891 33.1678 124.205 33.9759C124.544 34.8633 124.727 35.8815 124.727 37.0041C124.727 39.4831 123.683 41.3619 121.725 42.4836C120.316 43.2928 118.437 43.684 116.115 43.684C115.41 43.684 114.81 43.1103 114.81 42.3797C114.81 41.6491 115.41 41.075 116.115 41.075C117.967 41.075 119.428 40.7877 120.421 40.2133C121.568 39.5609 122.117 38.5435 122.117 37.0041C122.117 35.9594 121.908 35.0984 121.543 34.4461C121.256 33.9241 120.838 33.5329 120.342 33.2457C119.403 32.6973 118.437 32.6712 118.359 32.6712H111.913V49.269C111.913 49.9996 111.338 50.5737 110.608 50.5737Z" fill="url(#paint0_linear_0_62)"/>
<path fill-rule="evenodd" clip-rule="evenodd" d="M66.9547 37.3532C66.2445 35.3493 66.4856 33.9267 62.7042 32.108C63.5565 30.3282 64.1295 29.9158 64.4704 28.4354C67.33 30.5837 69.894 32.1359 67.632 42.4416C66.2464 41.1112 64.8767 39.9834 63.9783 39.4247C65.5003 39.1065 64.8087 37.9141 66.9547 37.3532ZM60.7922 14.3926C65.1609 16.9146 68.5349 18.7118 71.1379 20.1688C81.7122 26.0883 79.5526 26.3952 79.5526 46.8867C79.5526 51.9316 79.6834 55.7519 79.7231 58.7351C79.8841 70.8523 78.5382 69.1352 60.7922 79.3808C56.4234 81.9036 53.1794 83.9272 50.6158 85.4526C49.8614 85.9016 49.1675 86.3068 48.5193 86.6692L46.2274 90.3312C45.9303 90.6884 45.5996 91.0157 45.2436 91.3139C43.8285 92.4976 42.0582 93.1348 40.2285 93.2626C38.3731 93.3926 36.5015 92.9961 34.8155 92.2251C31.6089 90.7602 29.2286 88.068 27.6948 84.9503C26.8282 85.1256 25.9105 85.0391 25.1142 84.6506C24.5476 84.3747 24.1077 83.9823 23.7978 83.5243C23.1847 83.5318 22.5724 83.4075 22.0195 83.1372C21.4352 82.8519 20.9854 82.4426 20.6744 81.9652C20.0405 81.983 19.4052 81.8594 18.8322 81.5793C17.9501 81.1485 17.3748 80.4349 17.1209 79.6317C13.9222 79.1755 10.7807 77.8792 8.75714 75.2588C7.46341 73.5837 6.81597 71.5662 6.86624 69.5434C4.24967 66.9454 4.22548 63.9512 4.38234 56.3861C12.1451 52.7132 8.02164 40.8564 22.9323 38.3393C23.3344 38.7686 23.7604 39.201 24.1999 39.6353C24.7234 38.9338 22.007 36.7658 21.5969 34.9672C20.8293 31.6 24.0124 28.2502 30.1833 33.5601C28.7724 34.5299 26.9937 35.6195 25.1168 34.4872C35.2221 40.5673 38.6112 20.2758 45.2863 32.7032C29.7282 29.2676 30.8662 46.4981 16.9372 46.432C20.3164 48.1645 25.485 47.2211 28.7917 43.8993C34.2433 38.4224 40.1004 31.7198 43.5144 36.5931C34.199 36.3191 27.5002 54.1936 14.9529 54.7677C29.5495 56.0494 36.0741 36.7409 41.8858 45.1424C31.1308 45.4062 32.7617 57.3714 16.0101 58.5193C36.6402 59.9185 30.3481 45.3718 47.8072 51.3639C44.601 52.6153 45.6559 53.6513 44.8739 53.7325C41.4591 55.247 38.1891 56.2674 33.9655 58.8923C41.4671 56.0361 44.5334 54.2979 53.3737 53.796C56.217 53.6343 55.4623 54.8418 53.0944 55.0588C50.3815 55.3071 47.1598 55.6563 44.688 56.648C45.1313 58.0586 45.2213 58.4868 44.9953 58.6935C44.2598 59.3655 39.7493 61.541 37.5983 63.3049C39.9844 62.3117 43.7242 59.765 46.6322 58.8088C48.3768 58.2343 50.8339 57.3042 53.1016 56.8952C56.745 56.2387 55.3878 57.1719 53.4999 57.7989C51.1838 58.5677 48.209 59.8232 46.0894 60.7137C46.9568 62.5316 50.5459 61.0614 52.6548 60.372C54.6652 59.7144 55.412 60.2881 50.5334 62.4046C50.4967 62.4254 49.6724 62.9939 49.6686 62.9958C49.0439 63.5162 49.3697 63.2191 48.8851 63.8031C51.9424 68.591 58.0683 61.2247 64.3166 61.1767C66.4735 61.16 67.4078 58.1852 67.5587 55.8509C66.2241 54.53 65.1583 52.9536 61.8183 52.3968C58.8956 51.9108 59.3696 52.6285 58.2349 49.8113C65.2203 48.0772 66.1096 51.6833 69.0039 51.3291C70.3026 51.1692 71.4705 50.653 72.4709 49.9277C73.0839 48.9166 71.5449 46.6213 69.535 44.3978C69.6336 44.238 69.716 44.0573 69.7761 43.8593C73.4392 28.7963 69.7954 25.9383 64.8004 25.2088C66.3023 8.32301 32.386 13.2897 24.96 18.2348C36.2396 16.141 35.7709 19.8082 35.1745 19.9938C29.3801 21.478 26.8497 23.5636 21.4265 20.6046C22.0494 21.4633 21.9587 21.5241 22.9069 22.1066C24.2332 22.9214 25.6312 23.3137 27.0746 23.4313C23.9202 24.2065 20.7813 24.4068 17.7089 23.2162C18.4705 24.0387 18.5548 23.824 19.4812 24.6098C20.2288 25.2432 21.0814 25.6605 22.0165 25.9141C4.15519 29.519 11.8802 41.6913 4.50139 44.546C4.47115 40.6353 4.37289 37.5414 4.33925 35.0382C4.17862 22.9211 5.52451 24.6381 23.2701 14.3926C27.6393 11.8701 30.8829 9.84616 33.4465 8.32036C43.8599 2.12269 43.0454 4.14663 60.7922 14.3926ZM26.8441 26.1083C17.8295 26.2584 13.604 35.4989 11.6798 40.3182C13.9615 38.7289 16.9969 37.6416 22.8215 38.2202C20.0122 35.1879 18.3991 32.2402 21.2428 29.1977C23.8356 26.4228 31.6615 27.0423 34.7308 29.7329C35.2705 29.1981 35.763 28.5495 36.4512 28.141C46.5566 22.1383 43.8599 34.5578 52.2947 32.2913C45.2379 30.3183 48.1727 23.3565 39.5803 25.7436C45.0909 22.0416 47.9992 26.7463 51.5626 29.5949C54.3889 31.8547 53.5022 27.921 51.9072 26.2992C43.127 17.3738 36.7026 25.9439 26.8441 26.1083ZM71.7331 61.9624C71.9969 61.6782 72.0982 61.6608 72.4305 61.1128L73.4876 57.5687C73.7113 55.6344 73.6599 53.5171 72.8742 52.2116C71.325 53.4714 69.9265 54.6328 69.2266 55.3985C68.5092 56.1847 68.9907 59.1868 69.4121 60.0164C70.0433 61.2606 71.0521 61.3483 71.7331 61.9624ZM57.4341 29.2911C55.8939 25.3471 54.0189 20.4069 50.7953 19.8101C62.4253 19.6582 59.2766 34.0125 57.4341 29.2911ZM51.939 68.3619C51.6593 69.678 70.3154 76.1221 70.6972 66.567C70.8691 62.2535 71.7902 62.7527 66.7786 62.5838C60.8099 62.3823 59.1893 69.4198 51.939 68.3619ZM54.3889 38.9799C54.2619 41.948 54.3855 43.0829 56.1244 45.0933C50.307 41.8807 48.3972 39.8545 41.924 40.2687C46.185 37.0285 46.4666 35.1943 54.3889 38.9799ZM21.6816 62.9202C21.0364 62.4371 20.3962 62.0974 19.7764 61.88C19.1712 61.6692 18.5847 61.5818 18.0332 61.6004C17.4614 61.4896 16.8805 61.4231 16.2916 61.408C15.3044 61.3815 14.3418 61.5051 13.4362 61.7686C13.5125 61.6767 13.5919 61.5856 13.6735 61.4987C15.2481 59.8138 17.7316 58.997 20.457 59.9487C22.9791 60.8309 25.7242 63.2928 28.0581 68.1306C26.2042 66.0742 24.0525 64.1727 21.6816 62.9202ZM37.8421 71.4555L37.8402 71.4547C37.3334 71.2072 36.5582 71.3417 36.1179 71.7548L26.1275 81.122C25.6872 81.5351 25.742 82.0756 26.2488 82.3235L26.2503 82.3239C26.7571 82.5718 27.5316 82.4369 27.9719 82.0238L37.9627 72.6566C38.4026 72.2435 38.3489 71.7038 37.8421 71.4555ZM31.5621 68.3861L31.5605 68.385C31.0533 68.1374 30.2781 68.2724 29.8378 68.6851L19.8474 78.0523C19.4071 78.465 19.4619 79.0058 19.9687 79.2534L19.9702 79.2542C20.4771 79.5017 21.2519 79.3668 21.6922 78.9541L31.6826 69.5869C32.1229 69.1742 32.0689 68.6337 31.5621 68.3861ZM34.7493 69.944L34.7478 69.9429C34.2406 69.6957 33.4654 69.8303 33.0251 70.243L23.0347 79.6102C22.5944 80.0229 22.6492 80.5638 23.156 80.8113L23.1575 80.8121C23.6644 81.0596 24.4392 80.9247 24.8791 80.512L34.8699 71.1448C35.3102 70.7321 35.2562 70.1916 34.7493 69.944ZM24.7714 70.6198C21.4265 66.9571 18.4524 65.5488 16.1386 65.4857C14.1381 65.4324 12.6652 66.4446 11.9731 67.8226C11.2735 69.2165 11.3529 70.9917 12.4664 72.434C13.6618 73.9821 16.0244 75.1636 19.861 75.2248L18.4429 76.5541C18.2524 76.7321 18.0929 76.926 17.9607 77.1301C14.4344 76.7309 12.1152 75.3726 10.806 73.6763C9.19556 71.5915 9.09163 69.006 10.1181 66.9605C11.1522 64.8988 13.3209 63.3824 16.2364 63.461C19.0084 63.5362 22.4942 65.1134 26.2749 69.2108L24.7714 70.6198ZM39.7648 73.7039C42.616 74.1098 45.1566 75.2569 46.8552 77.8436C48.4142 80.2183 48.3073 82.486 47.1609 84.2046C46.4761 85.2319 45.4186 86.0422 44.1301 86.5403C42.8897 87.0188 41.4232 87.2112 39.8706 87.0271C37.0533 86.693 33.9046 85.1158 31.2699 81.7471L32.7881 80.323C35.0759 83.3338 37.7688 84.7326 40.1567 85.0157C41.3552 85.1582 42.4709 85.016 43.3992 84.6581C44.2805 84.3168 44.9907 83.7828 45.4333 83.1191C46.1457 82.0499 46.1726 80.5774 45.112 78.9628C43.5386 76.5658 40.8518 75.7313 37.8425 75.5839L39.3668 74.1548C39.5172 74.0135 39.651 73.8619 39.7648 73.7039ZM14.4899 67.9613C15.4575 70.003 17.9387 71.9748 22.6133 73.0281C20.7817 73.2307 17.9369 73.3139 15.894 72.4725C15.0126 71.8708 14.296 71.2162 13.7276 70.5325C13.5088 69.9592 13.5171 69.3234 13.8089 68.7437C13.9759 68.4103 14.211 68.1507 14.4899 67.9613ZM44.2386 88.675C44.0409 88.912 43.8206 89.1301 43.5825 89.3289C42.6391 90.1184 41.4073 90.5852 40.0475 90.68C38.7386 90.7711 37.3009 90.516 35.8907 89.8716C33.4998 88.7789 31.1535 86.5487 29.6277 82.9555C32.1029 86.1461 35.4519 88.5718 39.6287 89.0662C41.1696 89.2491 42.7544 89.1354 44.2386 88.675ZM42.822 82.6742C41.5967 79.9624 38.7689 78.5311 35.5865 77.6206C38.6785 77.48 41.9319 77.8606 43.3954 80.0906C43.7299 80.5993 44.1135 81.3968 43.7242 81.98C43.5193 82.2876 43.1656 82.5193 42.822 82.6742Z" fill="url(#paint1_linear_0_62)"/>
<path d="M92.2412 66.249C92.4718 66.249 92.6997 66.2109 92.9253 66.1342C93.1506 66.0574 93.357 65.9372 93.5441 65.7743C93.7311 65.6111 93.8895 65.3998 94.0191 65.1409C94.1488 64.8816 94.2376 64.5698 94.2856 64.2051H91.6082C91.5024 64.2051 91.4113 64.1665 91.3345 64.0898C91.2578 64.0131 91.2193 63.922 91.2193 63.8165V63.3558C91.2193 63.2504 91.2578 63.1589 91.3345 63.0822C91.4113 63.0055 91.5024 62.9673 91.6082 62.9673H94.2856C94.2376 62.612 94.1488 62.3074 94.0191 62.053C93.8895 61.7987 93.7311 61.59 93.5441 61.4267C93.357 61.2638 93.1506 61.1437 92.9253 61.0669C92.6997 60.9902 92.4718 60.9517 92.2412 60.9517C91.7809 60.9517 91.3875 61.0382 91.0609 61.2109C90.7347 61.3837 90.4804 61.6717 90.2982 62.0746C90.2309 62.228 90.1614 62.3312 90.0892 62.3841C90.0174 62.437 89.9286 62.4635 89.8231 62.4635H89.3911C89.2857 62.4635 89.1919 62.4249 89.1107 62.3482C89.029 62.2715 88.9931 62.18 89.0026 62.0746C89.012 61.8444 89.0865 61.5923 89.2256 61.319C89.3646 61.0454 89.571 60.791 89.8446 60.5559C90.1183 60.3209 90.4539 60.1217 90.8523 59.9584C91.2506 59.7955 91.7136 59.7139 92.2412 59.7139C92.7692 59.7139 93.2345 59.8 93.6378 59.9728C94.0407 60.1455 94.3816 60.3809 94.6598 60.6784C94.9379 60.9758 95.1564 61.3262 95.3148 61.7291C95.4731 62.1324 95.5714 62.564 95.6099 63.0247C95.6292 63.188 95.6364 63.3823 95.6315 63.6075C95.6266 63.8332 95.6194 64.0229 95.6099 64.1764C95.5907 64.6371 95.5018 65.0687 95.3435 65.472C95.1851 65.8749 94.9644 66.2252 94.6813 66.5227C94.3982 66.8201 94.0528 67.0552 93.645 67.2279C93.2372 67.4007 92.7692 67.4872 92.2412 67.4872C91.7136 67.4872 91.2506 67.4056 90.8523 67.2423C90.4539 67.0794 90.1183 66.8802 89.8446 66.6451C89.571 66.4101 89.3646 66.1557 89.2256 65.8821C89.0865 65.6088 89.012 65.3567 89.0026 65.1265C88.9931 65.0207 89.029 64.9296 89.1107 64.8529C89.1919 64.7762 89.2857 64.7376 89.3911 64.7376H89.8231C89.9286 64.7376 90.0174 64.7641 90.0892 64.817C90.1614 64.8695 90.2309 64.9727 90.2982 65.1265C90.4804 65.5294 90.7347 65.8174 91.0609 65.9901C91.3875 66.1629 91.7809 66.249 92.2412 66.249ZM263.585 64.4644L265.873 60.1455C265.902 60.088 265.957 60.0257 266.039 59.9584C266.12 59.8915 266.243 59.8579 266.406 59.8579H266.881C266.987 59.8579 267.078 59.896 267.154 59.9728C267.231 60.0499 267.27 60.141 267.27 60.2464V66.9547C267.27 67.0601 267.231 67.1512 267.154 67.2279C267.078 67.3047 266.987 67.3432 266.881 67.3432H266.349C266.243 67.3432 266.152 67.3047 266.075 67.2279C265.998 67.1512 265.96 67.0601 265.96 66.9547V62.6215L264.261 65.7596C264.213 65.8461 264.153 65.9278 264.081 66.0045C264.009 66.0812 263.901 66.1198 263.757 66.1198H263.412C263.268 66.1198 263.16 66.0812 263.088 66.0045C263.016 65.9278 262.956 65.8461 262.908 65.7596L261.209 62.6215V66.9547C261.209 67.0601 261.171 67.1512 261.094 67.2279C261.018 67.3047 260.926 67.3432 260.821 67.3432H260.288C260.183 67.3432 260.091 67.3047 260.014 67.2279C259.938 67.1512 259.9 67.0601 259.9 66.9547V60.2464C259.9 60.141 259.938 60.0499 260.014 59.9728C260.091 59.896 260.183 59.8579 260.288 59.8579H260.763C260.926 59.8579 261.049 59.8915 261.13 59.9584C261.212 60.0257 261.267 60.088 261.296 60.1455L263.585 64.4644ZM272.409 65.4576C272.409 65.0736 272.485 64.7376 272.639 64.45C272.793 64.162 273.004 63.9171 273.273 63.7156C273.541 63.5142 273.855 63.3509 274.215 63.2262C274.575 63.1015 274.957 63.0055 275.36 62.9382L277.389 62.6071V62.42C277.389 61.9306 277.229 61.5636 276.907 61.319C276.586 61.0741 276.185 60.9517 275.705 60.9517C275.283 60.9517 274.964 61.0288 274.748 61.1822C274.532 61.3357 274.347 61.5178 274.194 61.7291C274.136 61.8058 274.074 61.8587 274.007 61.8875C273.939 61.9162 273.848 61.9306 273.733 61.9306H273.301C273.196 61.9306 273.102 61.8924 273.021 61.8157C272.939 61.7386 272.903 61.6475 272.912 61.542C272.932 61.3307 273.016 61.1149 273.165 60.8942C273.313 60.6735 273.515 60.477 273.769 60.3039C274.023 60.1311 274.316 59.9898 274.647 59.8794C274.978 59.769 275.331 59.7139 275.705 59.7139C276.137 59.7139 276.538 59.7762 276.907 59.901C277.277 60.0257 277.593 60.2082 277.857 60.4478C278.121 60.6878 278.327 60.9853 278.476 61.3406C278.625 61.6955 278.699 62.1033 278.699 62.564V66.9547C278.699 67.0601 278.661 67.1512 278.584 67.2279C278.507 67.3047 278.416 67.3432 278.311 67.3432H277.778C277.672 67.3432 277.581 67.3047 277.505 67.2279C277.428 67.1512 277.389 67.0601 277.389 66.9547V66.3643C277.303 66.5469 277.169 66.7075 276.986 66.8466C276.804 66.9857 276.595 67.1032 276.36 67.1992C276.125 67.2952 275.881 67.367 275.626 67.415C275.372 67.463 275.134 67.4872 274.913 67.4872C274.539 67.4872 274.196 67.4343 273.884 67.3289C273.572 67.2234 273.309 67.0817 273.092 66.904C272.877 66.7268 272.709 66.5132 272.589 66.2634C272.469 66.014 272.409 65.7452 272.409 65.4576ZM275.057 66.249C275.403 66.249 275.72 66.1965 276.008 66.0907C276.296 65.9852 276.543 65.839 276.749 65.6519C276.955 65.4648 277.113 65.2414 277.224 64.9825C277.334 64.7232 277.389 64.4353 277.389 64.1189V63.7587L275.691 64.0324C275.086 64.1284 274.606 64.2818 274.251 64.4931C273.896 64.704 273.719 64.9776 273.719 65.3136C273.719 65.4191 273.743 65.5245 273.791 65.6303C273.839 65.7358 273.916 65.8367 274.021 65.9323C274.126 66.0283 274.263 66.1054 274.431 66.1629C274.599 66.2203 274.808 66.249 275.057 66.249ZM281.636 60.2464C281.636 60.141 281.675 60.0499 281.751 59.9728C281.828 59.896 281.919 59.8579 282.025 59.8579H286.876C286.982 59.8579 287.073 59.896 287.15 59.9728C287.226 60.0499 287.265 60.141 287.265 60.2464V66.9547C287.265 67.0601 287.226 67.1512 287.15 67.2279C287.073 67.3047 286.982 67.3432 286.876 67.3432H286.343C286.238 67.3432 286.146 67.3047 286.07 67.2279C285.993 67.1512 285.955 67.0601 285.955 66.9547V61.0957H282.946V64.8529C282.946 65.2463 282.906 65.6039 282.824 65.9251C282.742 66.2468 282.608 66.5227 282.421 66.7529C282.234 66.9834 281.986 67.1633 281.679 67.293C281.372 67.4222 280.993 67.4872 280.542 67.4872H280.369C280.264 67.4872 280.173 67.4487 280.096 67.3719C280.019 67.2952 279.981 67.2041 279.981 67.0987V66.638C279.981 66.5321 280.019 66.441 280.096 66.3643C280.173 66.2876 280.264 66.249 280.369 66.249H280.542C280.984 66.249 281.276 66.1221 281.42 65.8677C281.564 65.6133 281.636 65.2701 281.636 64.8385V60.2464ZM289.813 67.3432C289.707 67.3432 289.616 67.3047 289.539 67.2279C289.462 67.1512 289.424 67.0601 289.424 66.9547V60.2464C289.424 60.141 289.462 60.0499 289.539 59.9728C289.616 59.896 289.707 59.8579 289.813 59.8579H290.345C290.451 59.8579 290.542 59.896 290.619 59.9728C290.696 60.0499 290.734 60.141 290.734 60.2464V61.7004H292.289C292.749 61.7004 293.169 61.7677 293.548 61.9018C293.927 62.0364 294.254 62.2257 294.527 62.4707C294.8 62.7152 295.014 63.0126 295.167 63.363C295.321 63.7134 295.398 64.0996 295.398 64.5218C295.398 64.944 295.321 65.3302 295.167 65.6806C295.014 66.031 294.8 66.3284 294.527 66.573C294.254 66.8179 293.927 67.0072 293.548 67.1418C293.169 67.2759 292.749 67.3432 292.289 67.3432H289.813ZM294.102 64.5218C294.102 64.2338 294.052 63.9893 293.951 63.7878C293.85 63.586 293.711 63.4231 293.534 63.2984C293.356 63.1733 293.143 63.0822 292.893 63.0247C292.644 62.9673 292.375 62.9382 292.087 62.9382H290.734V66.1054H292.087C292.375 66.1054 292.644 66.0763 292.893 66.0189C293.143 65.9614 293.356 65.87 293.534 65.7452C293.711 65.6205 293.85 65.4576 293.951 65.2558C294.052 65.0543 294.102 64.8098 294.102 64.5218ZM303.258 59.8579C303.363 59.8579 303.454 59.896 303.531 59.9728C303.608 60.0499 303.646 60.141 303.646 60.2464V66.9547C303.646 67.0601 303.608 67.1512 303.531 67.2279C303.454 67.3047 303.363 67.3432 303.258 67.3432H302.725C302.62 67.3432 302.528 67.3047 302.452 67.2279C302.375 67.1512 302.336 67.0601 302.336 66.9547V61.0957H298.277V66.9547C298.277 67.0601 298.239 67.1512 298.162 67.2279C298.085 67.3047 297.994 67.3432 297.888 67.3432H297.356C297.25 67.3432 297.159 67.3047 297.082 67.2279C297.005 67.1512 296.967 67.0601 296.967 66.9547V60.2464C296.967 60.141 297.005 60.0499 297.082 59.9728C297.159 59.896 297.25 59.8579 297.356 59.8579H303.258ZM311.563 67.3432C311.458 67.3432 311.367 67.3047 311.29 67.2279C311.213 67.1512 311.175 67.0601 311.175 66.9547V62.1324L306.986 67.1849C306.909 67.2903 306.803 67.3432 306.669 67.3432H306.18C306.074 67.3432 305.986 67.3047 305.913 67.2279C305.842 67.1512 305.806 67.0601 305.806 66.9547V60.2464C305.806 60.141 305.844 60.0499 305.921 59.9728C305.997 59.896 306.089 59.8579 306.194 59.8579H306.727C306.832 59.8579 306.924 59.896 307 59.9728C307.077 60.0499 307.115 60.141 307.115 60.2464V65.1122L311.305 60.0162C311.353 59.9682 311.398 59.9297 311.441 59.901C311.484 59.8722 311.545 59.8579 311.621 59.8579H312.096C312.202 59.8579 312.293 59.896 312.37 59.9728C312.446 60.0499 312.485 60.141 312.485 60.2464V66.9547C312.485 67.0601 312.446 67.1512 312.37 67.2279C312.293 67.3047 312.202 67.3432 312.096 67.3432H311.563ZM320.935 59.8579C321.04 59.8579 321.131 59.896 321.208 59.9728C321.285 60.0499 321.323 60.141 321.323 60.2464V66.9547C321.323 67.0601 321.285 67.1512 321.208 67.2279C321.131 67.3047 321.04 67.3432 320.935 67.3432H320.402C320.296 67.3432 320.205 67.3047 320.129 67.2279C320.052 67.1512 320.013 67.0601 320.013 66.9547V64.1476H315.954V66.9547C315.954 67.0601 315.916 67.1512 315.839 67.2279C315.762 67.3047 315.671 67.3432 315.565 67.3432H315.033C314.927 67.3432 314.836 67.3073 314.759 67.2351C314.682 67.1633 314.644 67.0696 314.644 66.9547V60.2464C314.644 60.141 314.682 60.0499 314.759 59.9728C314.836 59.896 314.927 59.8579 315.033 59.8579H315.565C315.671 59.8579 315.762 59.896 315.839 59.9728C315.916 60.0499 315.954 60.141 315.954 60.2464V62.9095H320.013V60.2464C320.013 60.141 320.052 60.0499 320.129 59.9728C320.205 59.896 320.296 59.8579 320.402 59.8579H320.935ZM329.24 67.3432C329.135 67.3432 329.044 67.3047 328.967 67.2279C328.89 67.1512 328.852 67.0601 328.852 66.9547V62.1324L324.663 67.1849C324.586 67.2903 324.48 67.3432 324.346 67.3432H323.857C323.751 67.3432 323.662 67.3047 323.59 67.2279C323.518 67.1512 323.483 67.0601 323.483 66.9547V60.2464C323.483 60.141 323.521 60.0499 323.597 59.9728C323.674 59.896 323.766 59.8579 323.871 59.8579H324.404C324.509 59.8579 324.601 59.896 324.677 59.9728C324.754 60.0499 324.792 60.141 324.792 60.2464V65.1122L328.981 60.0162C329.029 59.9682 329.075 59.9297 329.118 59.901C329.161 59.8722 329.221 59.8579 329.298 59.8579H329.773C329.879 59.8579 329.97 59.896 330.046 59.9728C330.123 60.0499 330.162 60.141 330.162 60.2464V66.9547C330.162 67.0601 330.123 67.1512 330.046 67.2279C329.97 67.3047 329.879 67.3432 329.773 67.3432H329.24ZM333.127 65.568C333.29 65.87 333.523 66.0597 333.825 66.1364C334.127 66.2109 334.47 66.249 334.854 66.249C335.094 66.249 335.317 66.2324 335.524 66.1988C335.73 66.1651 335.91 66.11 336.063 66.0332C336.217 65.9565 336.339 65.8511 336.43 65.7165C336.522 65.5823 336.567 65.4191 336.567 65.2271C336.567 64.8623 336.414 64.6008 336.107 64.4424C335.8 64.2844 335.421 64.2051 334.97 64.2051H333.847C333.741 64.2051 333.65 64.1665 333.573 64.0898C333.496 64.0131 333.458 63.922 333.458 63.8165V63.3558C333.458 63.2504 333.496 63.1589 333.573 63.0822C333.65 63.0055 333.741 62.9673 333.847 62.9673H334.984C335.387 62.9673 335.73 62.883 336.013 62.7152C336.296 62.5474 336.438 62.2953 336.438 61.9593C336.438 61.6044 336.284 61.3478 335.977 61.1894C335.67 61.031 335.296 60.9517 334.854 60.9517C334.422 60.9517 334.087 61.0167 333.847 61.1463C333.607 61.2756 333.415 61.4891 333.271 61.7866C333.223 61.8924 333.158 61.9835 333.077 62.0602C332.995 62.1369 332.902 62.1755 332.796 62.1755H332.364C332.258 62.1755 332.165 62.1369 332.083 62.0602C332.002 61.9835 331.966 61.8924 331.975 61.7866C331.985 61.5277 332.055 61.2733 332.184 61.0238C332.313 60.7744 332.498 60.551 332.738 60.3545C332.978 60.1576 333.276 60.0019 333.631 59.8866C333.986 59.7713 334.394 59.7139 334.854 59.7139C335.257 59.7139 335.634 59.7592 335.984 59.8507C336.334 59.9418 336.639 60.0809 336.898 60.2679C337.158 60.455 337.364 60.6879 337.517 60.966C337.671 61.2446 337.748 61.5757 337.748 61.9593C337.748 62.2953 337.688 62.5927 337.568 62.852C337.448 63.1109 337.282 63.3365 337.071 63.5285C337.321 63.7107 337.517 63.9386 337.661 64.2123C337.805 64.4859 337.877 64.8242 337.877 65.2271C337.877 65.6492 337.798 66.0045 337.64 66.2925C337.482 66.5801 337.265 66.813 336.992 66.9906C336.718 67.1682 336.397 67.2952 336.028 67.3719C335.658 67.4487 335.267 67.4872 334.854 67.4872C334.346 67.4872 333.906 67.4343 333.537 67.3289C333.168 67.2257 332.858 67.0839 332.609 66.9067C332.359 66.7313 332.17 66.525 332.04 66.2925C331.911 66.0597 331.841 65.8174 331.832 65.5702C331.822 65.4648 331.858 65.376 331.939 65.2992C332.021 65.2225 332.115 65.184 332.22 65.184H332.652C332.758 65.184 332.844 65.2104 332.911 65.263C332.978 65.3136 333.05 65.4168 333.127 65.568ZM343.391 64.4644L345.68 60.1455C345.708 60.088 345.764 60.0257 345.845 59.9584C345.927 59.8915 346.049 59.8579 346.212 59.8579H346.687C346.793 59.8579 346.884 59.896 346.961 59.9728C347.038 60.0499 347.076 60.141 347.076 60.2464V66.9547C347.076 67.0601 347.038 67.1512 346.961 67.2279C346.884 67.3047 346.793 67.3432 346.687 67.3432H346.155C346.049 67.3432 345.958 67.3047 345.881 67.2279C345.804 67.1512 345.766 67.0601 345.766 66.9547V62.6215L344.067 65.7596C344.019 65.8461 343.959 65.9278 343.887 66.0045C343.815 66.0812 343.708 66.1198 343.564 66.1198H343.218C343.074 66.1198 342.966 66.0812 342.894 66.0045C342.822 65.9278 342.762 65.8461 342.714 65.7596L341.015 62.6215V66.9547C341.015 67.0601 340.977 67.1512 340.901 67.2279C340.824 67.3047 340.732 67.3432 340.627 67.3432H340.094C339.989 67.3432 339.897 67.3047 339.821 67.2279C339.744 67.1512 339.706 67.0601 339.706 66.9547V60.2464C339.706 60.141 339.744 60.0499 339.821 59.9728C339.897 59.896 339.989 59.8579 340.094 59.8579H340.569C340.732 59.8579 340.855 59.8915 340.936 59.9584C341.018 60.0257 341.073 60.088 341.102 60.1455L343.391 64.4644ZM348.89 62.8807C348.928 62.4393 349.034 62.0266 349.206 61.6429C349.379 61.2589 349.605 60.9229 349.883 60.6349C350.162 60.3473 350.495 60.1217 350.883 59.9584C351.272 59.7955 351.707 59.7139 352.186 59.7139C352.704 59.7139 353.168 59.7978 353.576 59.9656C353.983 60.1338 354.331 60.376 354.619 60.6928C354.907 61.0095 355.128 61.3931 355.281 61.8444C355.435 62.2953 355.511 62.7991 355.511 63.3558V63.7444C355.511 63.8502 355.473 63.9413 355.397 64.018C355.32 64.0947 355.228 64.1333 355.123 64.1333H350.171V64.2194C350.19 64.8722 350.389 65.3733 350.768 65.7237C351.148 66.0741 351.62 66.249 352.186 66.249C352.714 66.249 353.11 66.175 353.374 66.0261C353.638 65.8771 353.851 65.7116 354.014 65.5294C354.091 65.4527 354.158 65.3998 354.216 65.3711C354.274 65.3423 354.36 65.328 354.475 65.328H354.907C355.013 65.328 355.109 65.3661 355.195 65.4433C355.281 65.52 355.315 65.6111 355.296 65.7165C355.267 65.8892 355.185 66.079 355.051 66.2853C354.917 66.4917 354.722 66.6833 354.468 66.861C354.214 67.0386 353.897 67.1871 353.518 67.3073C353.139 67.4271 352.695 67.4872 352.186 67.4872C351.707 67.4872 351.275 67.4033 350.891 67.2351C350.507 67.0673 350.174 66.8371 349.89 66.5442C349.607 66.2517 349.379 65.9062 349.206 65.5079C349.034 65.1095 348.928 64.6753 348.89 64.2051C348.842 63.7636 348.842 63.3222 348.89 62.8807ZM350.171 62.9238H354.216V62.8807C354.216 62.2953 354.031 61.8274 353.662 61.4774C353.292 61.127 352.8 60.9517 352.186 60.9517C351.908 60.9517 351.649 60.9974 351.409 61.0885C351.169 61.1796 350.958 61.3092 350.776 61.4774C350.593 61.6452 350.449 61.8489 350.344 62.0889C350.238 62.3289 350.181 62.5927 350.171 62.8807V62.9238ZM98.7333 62.7367L101.728 60.1024C101.785 60.0544 101.86 60.0019 101.951 59.944C102.042 59.8866 102.155 59.8579 102.289 59.8579H102.98C103.076 59.8579 103.158 59.8915 103.225 59.9584C103.292 60.0257 103.325 60.1073 103.325 60.2033C103.325 60.2513 103.318 60.2967 103.304 60.3401C103.29 60.3832 103.244 60.4335 103.167 60.4913L99.6835 63.5429L103.513 66.7241C103.609 66.8009 103.657 66.8923 103.657 66.9978C103.657 67.0938 103.623 67.1754 103.556 67.2423C103.489 67.3096 103.407 67.3432 103.311 67.3432H102.563C102.419 67.3432 102.296 67.3145 102.195 67.2567C102.095 67.1992 102.02 67.1463 101.972 67.0987L98.7333 64.4065V66.9547C98.7333 67.0601 98.6952 67.1512 98.6184 67.2279C98.5417 67.3047 98.4503 67.3432 98.3448 67.3432H97.8123C97.7068 67.3432 97.6154 67.3047 97.5386 67.2279C97.4619 67.1512 97.4237 67.0601 97.4237 66.9547V60.2464C97.4237 60.141 97.4619 60.0499 97.5386 59.9728C97.6154 59.896 97.7068 59.8579 97.8123 59.8579H98.3448C98.4503 59.8579 98.5417 59.896 98.6184 59.9728C98.6952 60.0499 98.7333 60.141 98.7333 60.2464V62.7367ZM105.485 64.1042C105.523 64.4882 105.607 64.8143 105.737 65.0831C105.866 65.3518 106.025 65.5725 106.212 65.7452C106.399 65.918 106.608 66.0453 106.838 66.127C107.068 66.2082 107.303 66.249 107.543 66.249C108.004 66.249 108.398 66.1629 108.724 65.9901C109.05 65.8174 109.304 65.5294 109.487 65.1265C109.554 64.9727 109.623 64.8695 109.695 64.817C109.767 64.7641 109.856 64.7376 109.962 64.7376H110.394C110.499 64.7376 110.593 64.7762 110.674 64.8529C110.756 64.9296 110.792 65.0207 110.782 65.1265C110.773 65.3567 110.698 65.6088 110.559 65.8821C110.42 66.1557 110.214 66.4101 109.94 66.6451C109.667 66.8802 109.331 67.0794 108.932 67.2423C108.534 67.4056 108.071 67.4872 107.543 67.4872C107.015 67.4872 106.548 67.4007 106.14 67.2279C105.732 67.0552 105.386 66.8201 105.103 66.5227C104.82 66.2252 104.6 65.8749 104.441 65.472C104.283 65.0687 104.194 64.6371 104.175 64.1764C104.165 64.0229 104.158 63.8332 104.153 63.6075C104.149 63.3823 104.156 63.188 104.175 63.0247C104.213 62.564 104.312 62.1324 104.47 61.7291C104.628 61.3262 104.847 60.9758 105.125 60.6784C105.403 60.3809 105.744 60.1455 106.147 59.9728C106.55 59.8 107.015 59.7139 107.543 59.7139C108.071 59.7139 108.534 59.7955 108.932 59.9584C109.331 60.1217 109.667 60.3209 109.94 60.5559C110.214 60.791 110.42 61.0454 110.559 61.319C110.698 61.5923 110.773 61.8444 110.782 62.0746C110.792 62.18 110.756 62.2715 110.674 62.3482C110.593 62.4249 110.499 62.4635 110.394 62.4635H109.962C109.856 62.4635 109.767 62.437 109.695 62.3841C109.623 62.3312 109.554 62.228 109.487 62.0746C109.304 61.6717 109.05 61.3837 108.724 61.2109C108.398 61.0382 108.004 60.9517 107.543 60.9517C107.303 60.9517 107.066 60.9925 106.831 61.0741C106.596 61.1558 106.385 61.2827 106.198 61.4555C106.01 61.6282 105.852 61.8489 105.722 62.1176C105.593 62.3864 105.514 62.7129 105.485 63.0965C105.456 63.4518 105.456 63.7878 105.485 64.1042ZM118.8 59.8579C118.906 59.8579 118.997 59.896 119.074 59.9728C119.15 60.0499 119.189 60.141 119.189 60.2464V66.9547C119.189 67.0601 119.15 67.1512 119.074 67.2279C118.997 67.3047 118.906 67.3432 118.8 67.3432H118.267C118.162 67.3432 118.071 67.3047 117.994 67.2279C117.917 67.1512 117.879 67.0601 117.879 66.9547V61.0957H113.819V66.9547C113.819 67.0601 113.781 67.1512 113.704 67.2279C113.628 67.3047 113.536 67.3432 113.431 67.3432H112.898C112.793 67.3432 112.701 67.3047 112.625 67.2279C112.548 67.1512 112.51 67.0601 112.51 66.9547V60.2464C112.51 60.141 112.548 60.0499 112.625 59.9728C112.701 59.896 112.793 59.8579 112.898 59.8579H118.8ZM121.002 62.8807C121.041 62.4393 121.146 62.0266 121.319 61.6429C121.492 61.2589 121.717 60.9229 121.996 60.6349C122.274 60.3473 122.607 60.1217 122.996 59.9584C123.385 59.7955 123.819 59.7139 124.299 59.7139C124.817 59.7139 125.28 59.7978 125.688 59.9656C126.096 60.1338 126.444 60.376 126.732 60.6928C127.02 61.0095 127.24 61.3931 127.394 61.8444C127.547 62.2953 127.624 62.7991 127.624 63.3558V63.7444C127.624 63.8502 127.586 63.9413 127.509 64.018C127.432 64.0947 127.341 64.1333 127.236 64.1333H122.284V64.2194C122.303 64.8722 122.502 65.3733 122.881 65.7237C123.26 66.0741 123.733 66.249 124.299 66.249C124.827 66.249 125.223 66.175 125.487 66.0261C125.751 65.8771 125.964 65.7116 126.127 65.5294C126.204 65.4527 126.271 65.3998 126.329 65.3711C126.386 65.3423 126.472 65.328 126.588 65.328H127.02C127.125 65.328 127.221 65.3661 127.308 65.4433C127.394 65.52 127.428 65.6111 127.408 65.7165C127.38 65.8892 127.298 66.079 127.164 66.2853C127.029 66.4917 126.835 66.6833 126.581 66.861C126.326 67.0386 126.009 67.1871 125.63 67.3073C125.251 67.4271 124.808 67.4872 124.299 67.4872C123.819 67.4872 123.387 67.4033 123.004 67.2351C122.62 67.0673 122.286 66.8371 122.003 66.5442C121.72 66.2517 121.492 65.9062 121.319 65.5079C121.146 65.1095 121.041 64.6753 121.002 64.2051C120.954 63.7636 120.954 63.3222 121.002 62.8807ZM122.284 62.9238H126.329V62.8807C126.329 62.2953 126.144 61.8274 125.774 61.4774C125.405 61.127 124.913 60.9517 124.299 60.9517C124.021 60.9517 123.761 60.9974 123.522 61.0885C123.282 61.1796 123.07 61.3092 122.888 61.4774C122.706 61.6452 122.562 61.8489 122.456 62.0889C122.351 62.3289 122.293 62.5927 122.284 62.8807V62.9238ZM132.907 67.4872C132.312 67.4872 131.837 67.384 131.482 67.1777C131.127 66.9713 130.858 66.7483 130.676 66.5083V69.6896C130.676 69.795 130.637 69.8865 130.561 69.9632C130.484 70.0399 130.393 70.0785 130.287 70.0785H129.755C129.649 70.0785 129.558 70.0399 129.481 69.9632C129.404 69.8865 129.366 69.795 129.366 69.6896V60.2464C129.366 60.141 129.404 60.0499 129.481 59.9728C129.558 59.896 129.649 59.8579 129.755 59.8579H130.287C130.393 59.8579 130.484 59.896 130.561 59.9728C130.637 60.0499 130.676 60.141 130.676 60.2464V60.6928C130.868 60.4335 131.141 60.2056 131.496 60.009C131.851 59.8121 132.322 59.7139 132.907 59.7139C133.358 59.7139 133.778 59.7929 134.167 59.9512C134.555 60.1096 134.894 60.3375 135.182 60.6349C135.469 60.9328 135.7 61.2926 135.872 61.7147C136.045 62.1369 136.146 62.612 136.175 63.14C136.184 63.2836 136.189 63.4397 136.189 63.6075C136.189 63.7757 136.184 63.9314 136.175 64.0754C136.146 64.6034 136.045 65.0785 135.872 65.5007C135.7 65.9229 135.469 66.2804 135.182 66.573C134.894 66.8659 134.555 67.0911 134.167 67.2495C133.778 67.4079 133.358 67.4872 132.907 67.4872ZM130.676 62.9816C130.666 63.1256 130.661 63.315 130.661 63.5501C130.661 63.7852 130.666 63.9749 130.676 64.1189C130.705 64.8 130.908 65.3253 131.288 65.695C131.667 66.0646 132.158 66.249 132.763 66.249C133.397 66.249 133.895 66.0476 134.26 65.6447C134.625 65.2414 134.826 64.6945 134.865 64.0036C134.874 63.7349 134.874 63.4662 134.865 63.1975C134.826 62.5066 134.625 61.9593 134.26 61.5564C133.895 61.1535 133.397 60.9517 132.763 60.9517C132.168 60.9517 131.679 61.1342 131.295 61.4989C130.911 61.8637 130.705 62.3576 130.676 62.9816ZM143.617 59.8579C143.723 59.8579 143.814 59.896 143.89 59.9728C143.967 60.0499 144.006 60.141 144.006 60.2464V60.7071C144.006 60.8126 143.967 60.9037 143.89 60.9808C143.814 61.0575 143.723 61.0957 143.617 61.0957H141.127V66.9547C141.127 67.0601 141.088 67.1512 141.012 67.2279C140.935 67.3047 140.844 67.3432 140.738 67.3432H140.205C140.1 67.3432 140.009 67.3047 139.932 67.2279C139.855 67.1512 139.817 67.0601 139.817 66.9547V61.0957H137.326C137.221 61.0957 137.13 61.0575 137.053 60.9808C136.976 60.9037 136.938 60.8126 136.938 60.7071V60.2464C136.938 60.141 136.976 60.0499 137.053 59.9728C137.13 59.896 137.221 59.8579 137.326 59.8579H143.617ZM150.123 64.1907V66.0907H152.556C153.036 66.0907 153.42 66.0211 153.708 65.8821C153.996 65.743 154.14 65.4909 154.14 65.1265C154.14 64.7618 154.003 64.5146 153.729 64.385C153.456 64.2553 153.079 64.1907 152.599 64.1907H150.123ZM150.123 61.11V62.9382H152.484C152.964 62.9382 153.334 62.8735 153.592 62.7439C153.852 62.6143 153.981 62.3675 153.981 62.0027C153.981 61.638 153.84 61.398 153.557 61.2827C153.273 61.1679 152.892 61.11 152.412 61.11H150.123ZM149.101 67.3432C149.024 67.3432 148.957 67.3145 148.9 67.2567C148.842 67.1992 148.814 67.1319 148.814 67.0552V60.1455C148.814 60.0688 148.842 60.0019 148.9 59.944C148.957 59.8866 149.024 59.8579 149.101 59.8579H152.671C153.496 59.8579 154.14 60.04 154.6 60.4048C155.061 60.7695 155.291 61.254 155.291 61.8587C155.291 62.0795 155.265 62.2715 155.212 62.4344C155.159 62.5976 155.092 62.7416 155.01 62.8664C154.929 62.9911 154.838 63.1015 154.737 63.1975C154.636 63.2935 154.533 63.3796 154.427 63.4567C154.821 63.6775 155.09 63.9314 155.234 64.2194C155.378 64.5074 155.45 64.8385 155.45 65.2127C155.45 65.9036 155.212 66.4316 154.737 66.7963C154.262 67.161 153.626 67.3432 152.83 67.3432H149.101ZM167.081 59.8579C167.186 59.8579 167.277 59.896 167.354 59.9728C167.431 60.0499 167.469 60.141 167.469 60.2464V66.9547C167.469 67.0601 167.431 67.1512 167.354 67.2279C167.277 67.3047 167.186 67.3432 167.081 67.3432H166.548C166.442 67.3432 166.351 67.3047 166.275 67.2279C166.198 67.1512 166.159 67.0601 166.159 66.9547V61.0957H162.1V66.9547C162.1 67.0601 162.062 67.1512 161.985 67.2279C161.908 67.3047 161.817 67.3432 161.711 67.3432H161.179C161.073 67.3432 160.982 67.3047 160.905 67.2279C160.828 67.1512 160.79 67.0601 160.79 66.9547V60.2464C160.79 60.141 160.828 60.0499 160.905 59.9728C160.982 59.896 161.073 59.8579 161.179 59.8579H167.081ZM173.17 67.4872C172.575 67.4872 172.1 67.384 171.744 67.1777C171.389 66.9713 171.121 66.7483 170.938 66.5083V69.6896C170.938 69.795 170.9 69.8865 170.823 69.9632C170.747 70.0399 170.655 70.0785 170.55 70.0785H170.017C169.912 70.0785 169.82 70.0399 169.743 69.9632C169.667 69.8865 169.629 69.795 169.629 69.6896V60.2464C169.629 60.141 169.667 60.0499 169.743 59.9728C169.82 59.896 169.912 59.8579 170.017 59.8579H170.55C170.655 59.8579 170.747 59.896 170.823 59.9728C170.9 60.0499 170.938 60.141 170.938 60.2464V60.6928C171.13 60.4335 171.404 60.2056 171.759 60.009C172.114 59.8121 172.584 59.7139 173.17 59.7139C173.621 59.7139 174.04 59.7929 174.429 59.9512C174.818 60.1096 175.156 60.3375 175.444 60.6349C175.732 60.9328 175.962 61.2926 176.135 61.7147C176.308 62.1369 176.409 62.612 176.437 63.14C176.447 63.2836 176.452 63.4397 176.452 63.6075C176.452 63.7757 176.447 63.9314 176.437 64.0754C176.409 64.6034 176.308 65.0785 176.135 65.5007C175.962 65.9229 175.732 66.2804 175.444 66.573C175.156 66.8659 174.818 67.0911 174.429 67.2495C174.04 67.4079 173.621 67.4872 173.17 67.4872ZM170.938 62.9816C170.929 63.1256 170.924 63.315 170.924 63.5501C170.924 63.7852 170.929 63.9749 170.938 64.1189C170.967 64.8 171.171 65.3253 171.55 65.695C171.929 66.0646 172.421 66.249 173.026 66.249C173.659 66.249 174.158 66.0476 174.523 65.6447C174.887 65.2414 175.089 64.6945 175.127 64.0036C175.137 63.7349 175.137 63.4662 175.127 63.1975C175.089 62.5066 174.887 61.9593 174.523 61.5564C174.158 61.1535 173.659 60.9517 173.026 60.9517C172.431 60.9517 171.941 61.1342 171.557 61.4989C171.174 61.8637 170.967 62.3576 170.938 62.9816ZM181.303 59.7139C181.821 59.7139 182.282 59.7929 182.685 59.9512C183.088 60.1096 183.433 60.328 183.721 60.6062C184.009 60.8848 184.237 61.223 184.405 61.621C184.573 62.0194 184.676 62.4536 184.715 62.9238C184.724 63.0104 184.729 63.1136 184.729 63.2334C184.729 63.3536 184.729 63.4783 184.729 63.6075C184.729 63.7372 184.729 63.8619 184.729 63.9821C184.729 64.1019 184.724 64.2002 184.715 64.2769C184.667 64.7569 184.561 65.1934 184.398 65.5869C184.235 65.9803 184.009 66.3163 183.721 66.5945C183.433 66.873 183.088 67.0911 182.685 67.2495C182.282 67.4079 181.821 67.4872 181.303 67.4872C180.785 67.4872 180.324 67.4079 179.921 67.2495C179.518 67.0911 179.172 66.873 178.884 66.5945C178.597 66.3163 178.369 65.9803 178.201 65.5869C178.033 65.1934 177.93 64.7569 177.891 64.2769C177.882 64.2002 177.874 64.1019 177.869 63.9821C177.865 63.8619 177.862 63.7372 177.862 63.6075C177.862 63.4783 177.865 63.3536 177.869 63.2334C177.874 63.1136 177.882 63.0104 177.891 62.9238C177.93 62.4536 178.033 62.0194 178.201 61.621C178.369 61.223 178.597 60.8848 178.884 60.6062C179.172 60.328 179.518 60.1096 179.921 59.9512C180.324 59.7929 180.785 59.7139 181.303 59.7139ZM183.405 64.2051C183.424 64.0418 183.433 63.843 183.433 63.6075C183.433 63.3724 183.424 63.1687 183.405 62.996C183.376 62.708 183.313 62.4393 183.217 62.1898C183.121 61.9404 182.987 61.7242 182.814 61.542C182.642 61.3599 182.431 61.2158 182.181 61.11C181.931 61.0046 181.639 60.9517 181.303 60.9517C180.967 60.9517 180.674 61.0046 180.425 61.11C180.175 61.2158 179.964 61.3599 179.791 61.542C179.619 61.7242 179.484 61.9404 179.388 62.1898C179.292 62.4393 179.23 62.708 179.201 62.996C179.182 63.1687 179.172 63.3724 179.172 63.6075C179.172 63.843 179.182 64.0418 179.201 64.2051C179.23 64.4931 179.292 64.7618 179.388 65.0112C179.484 65.2607 179.619 65.4765 179.791 65.6591C179.964 65.8412 180.175 65.9852 180.425 66.0907C180.674 66.1965 180.967 66.249 181.303 66.249C181.639 66.249 181.931 66.1965 182.181 66.0907C182.431 65.9852 182.642 65.8412 182.814 65.6591C182.987 65.4765 183.121 65.2607 183.217 65.0112C183.313 64.7618 183.376 64.4931 183.405 64.2051ZM190.228 64.4644L192.517 60.1455C192.545 60.088 192.601 60.0257 192.682 59.9584C192.763 59.8915 192.886 59.8579 193.049 59.8579H193.524C193.63 59.8579 193.721 59.896 193.798 59.9728C193.875 60.0499 193.913 60.141 193.913 60.2464V66.9547C193.913 67.0601 193.875 67.1512 193.798 67.2279C193.721 67.3047 193.63 67.3432 193.524 67.3432H192.992C192.886 67.3432 192.795 67.3047 192.718 67.2279C192.641 67.1512 192.603 67.0601 192.603 66.9547V62.6215L190.904 65.7596C190.856 65.8461 190.796 65.9278 190.724 66.0045C190.652 66.0812 190.544 66.1198 190.4 66.1198H190.055C189.911 66.1198 189.803 66.0812 189.731 66.0045C189.659 65.9278 189.599 65.8461 189.551 65.7596L187.852 62.6215V66.9547C187.852 67.0601 187.814 67.1512 187.737 67.2279C187.661 67.3047 187.569 67.3432 187.464 67.3432H186.931C186.826 67.3432 186.734 67.3047 186.658 67.2279C186.581 67.1512 186.543 67.0601 186.543 66.9547V60.2464C186.543 60.141 186.581 60.0499 186.658 59.9728C186.734 59.896 186.826 59.8579 186.931 59.8579H187.406C187.569 59.8579 187.692 59.8915 187.773 59.9584C187.855 60.0257 187.91 60.088 187.939 60.1455L190.228 64.4644ZM196.461 67.3432C196.356 67.3432 196.264 67.3047 196.187 67.2279C196.111 67.1512 196.072 67.0601 196.072 66.9547V60.2464C196.072 60.141 196.111 60.0499 196.187 59.9728C196.264 59.896 196.356 59.8579 196.461 59.8579H196.994C197.099 59.8579 197.19 59.896 197.267 59.9728C197.344 60.0499 197.382 60.141 197.382 60.2464V61.7004H198.937C199.398 61.7004 199.817 61.7677 200.196 61.9018C200.575 62.0364 200.902 62.2257 201.175 62.4707C201.449 62.7152 201.662 63.0126 201.816 63.363C201.969 63.7134 202.046 64.0996 202.046 64.5218C202.046 64.944 201.969 65.3302 201.816 65.6806C201.662 66.031 201.449 66.3284 201.175 66.573C200.902 66.8179 200.575 67.0072 200.196 67.1418C199.817 67.2759 199.398 67.3432 198.937 67.3432H196.461ZM204.076 66.9547C204.076 67.0601 204.037 67.1512 203.961 67.2279C203.884 67.3047 203.793 67.3432 203.687 67.3432H203.155C203.049 67.3432 202.958 67.3047 202.881 67.2279C202.805 67.1512 202.766 67.0601 202.766 66.9547V60.2464C202.766 60.141 202.805 60.0499 202.881 59.9728C202.958 59.896 203.049 59.8579 203.155 59.8579H203.687C203.793 59.8579 203.884 59.896 203.961 59.9728C204.037 60.0499 204.076 60.141 204.076 60.2464V66.9547ZM200.751 64.5218C200.751 64.2338 200.7 63.9893 200.6 63.7878C200.499 63.586 200.36 63.4231 200.182 63.2984C200.005 63.1733 199.791 63.0822 199.541 63.0247C199.292 62.9673 199.023 62.9382 198.735 62.9382H197.382V66.1054H198.735C199.023 66.1054 199.292 66.0763 199.541 66.0189C199.791 65.9614 200.005 65.87 200.182 65.7452C200.36 65.6205 200.499 65.4576 200.6 65.2558C200.7 65.0543 200.751 64.8098 200.751 64.5218ZM207.156 59.8579C207.262 59.8579 207.353 59.896 207.43 59.9728C207.507 60.0499 207.545 60.141 207.545 60.2464V66.1054H210.021V60.2464C210.021 60.141 210.059 60.0499 210.136 59.9728C210.213 59.896 210.304 59.8579 210.41 59.8579H210.942C211.048 59.8579 211.139 59.896 211.216 59.9728C211.293 60.0499 211.331 60.141 211.331 60.2464V66.1054H213.807V60.2464C213.807 60.141 213.845 60.0499 213.922 59.9728C213.999 59.896 214.09 59.8579 214.196 59.8579H214.728C214.834 59.8579 214.925 59.896 215.002 59.9728C215.079 60.0499 215.117 60.141 215.117 60.2464V66.9547C215.117 67.0601 215.079 67.1512 215.002 67.2279C214.925 67.3047 214.834 67.3432 214.728 67.3432H206.624C206.518 67.3432 206.427 67.3047 206.35 67.2279C206.273 67.1512 206.235 67.0601 206.235 66.9547V60.2464C206.235 60.141 206.273 60.0499 206.35 59.9728C206.427 59.896 206.518 59.8579 206.624 59.8579H207.156ZM218.111 60.2464C218.111 60.141 218.149 60.0499 218.226 59.9728C218.303 59.896 218.394 59.8579 218.5 59.8579H223.351C223.457 59.8579 223.548 59.896 223.624 59.9728C223.701 60.0499 223.74 60.141 223.74 60.2464V66.9547C223.74 67.0601 223.701 67.1512 223.624 67.2279C223.548 67.3047 223.457 67.3432 223.351 67.3432H222.818C222.713 67.3432 222.621 67.3047 222.545 67.2279C222.468 67.1512 222.43 67.0601 222.43 66.9547V61.0957H219.421V64.8529C219.421 65.2463 219.38 65.6039 219.299 65.9251C219.217 66.2468 219.083 66.5227 218.895 66.7529C218.708 66.9834 218.461 67.1633 218.154 67.293C217.847 67.4222 217.468 67.4872 217.017 67.4872H216.844C216.739 67.4872 216.647 67.4487 216.571 67.3719C216.494 67.2952 216.456 67.2041 216.456 67.0987V66.638C216.456 66.5321 216.494 66.441 216.571 66.3643C216.647 66.2876 216.739 66.249 216.844 66.249H217.017C217.459 66.249 217.751 66.1221 217.895 65.8677C218.039 65.6133 218.111 65.2701 218.111 64.8385V60.2464ZM225.553 62.8807C225.592 62.4393 225.697 62.0266 225.87 61.6429C226.043 61.2589 226.268 60.9229 226.546 60.6349C226.825 60.3473 227.158 60.1217 227.547 59.9584C227.936 59.7955 228.37 59.7139 228.85 59.7139C229.368 59.7139 229.831 59.7978 230.239 59.9656C230.647 60.1338 230.995 60.376 231.283 60.6928C231.571 61.0095 231.791 61.3931 231.945 61.8444C232.098 62.2953 232.175 62.7991 232.175 63.3558V63.7444C232.175 63.8502 232.137 63.9413 232.06 64.018C231.983 64.0947 231.892 64.1333 231.786 64.1333H226.834V64.2194C226.854 64.8722 227.053 65.3733 227.432 65.7237C227.811 66.0741 228.283 66.249 228.85 66.249C229.378 66.249 229.773 66.175 230.038 66.0261C230.301 65.8771 230.515 65.7116 230.678 65.5294C230.755 65.4527 230.822 65.3998 230.88 65.3711C230.937 65.3423 231.023 65.328 231.139 65.328H231.571C231.676 65.328 231.772 65.3661 231.859 65.4433C231.945 65.52 231.978 65.6111 231.959 65.7165C231.93 65.8892 231.849 66.079 231.714 66.2853C231.58 66.4917 231.386 66.6833 231.131 66.861C230.877 67.0386 230.56 67.1871 230.181 67.3073C229.802 67.4271 229.358 67.4872 228.85 67.4872C228.37 67.4872 227.938 67.4033 227.554 67.2351C227.17 67.0673 226.837 66.8371 226.554 66.5442C226.27 66.2517 226.043 65.9062 225.87 65.5079C225.697 65.1095 225.592 64.6753 225.553 64.2051C225.505 63.7636 225.505 63.3222 225.553 62.8807ZM226.834 62.9238H230.88V62.8807C230.88 62.2953 230.695 61.8274 230.325 61.4774C229.956 61.127 229.464 60.9517 228.85 60.9517C228.571 60.9517 228.312 60.9974 228.073 61.0885C227.833 61.1796 227.621 61.3092 227.439 61.4774C227.257 61.6452 227.113 61.8489 227.007 62.0889C226.902 62.3289 226.844 62.5927 226.834 62.8807V62.9238ZM240.207 59.8579C240.313 59.8579 240.404 59.896 240.481 59.9728C240.557 60.0499 240.596 60.141 240.596 60.2464V66.9547C240.596 67.0601 240.557 67.1512 240.481 67.2279C240.404 67.3047 240.313 67.3432 240.207 67.3432H239.675C239.569 67.3432 239.478 67.3047 239.401 67.2279C239.325 67.1512 239.286 67.0601 239.286 66.9547V64.1476H235.226V66.9547C235.226 67.0601 235.188 67.1512 235.112 67.2279C235.035 67.3047 234.943 67.3432 234.838 67.3432H234.305C234.2 67.3432 234.108 67.3073 234.032 67.2351C233.955 67.1633 233.917 67.0696 233.917 66.9547V60.2464C233.917 60.141 233.955 60.0499 234.032 59.9728C234.108 59.896 234.2 59.8579 234.305 59.8579H234.838C234.943 59.8579 235.035 59.896 235.112 59.9728C235.188 60.0499 235.226 60.141 235.226 60.2464V62.9095H239.286V60.2464C239.286 60.141 239.325 60.0499 239.401 59.9728C239.478 59.896 239.569 59.8579 239.675 59.8579H240.207ZM249.046 59.8579C249.151 59.8579 249.242 59.896 249.319 59.9728C249.396 60.0499 249.434 60.141 249.434 60.2464V66.9547C249.434 67.0601 249.396 67.1512 249.319 67.2279C249.242 67.3047 249.151 67.3432 249.046 67.3432H248.513C248.408 67.3432 248.316 67.3047 248.24 67.2279C248.163 67.1512 248.124 67.0601 248.124 66.9547V64.1476H244.065V66.9547C244.065 67.0601 244.027 67.1512 243.95 67.2279C243.873 67.3047 243.782 67.3432 243.676 67.3432H243.144C243.038 67.3432 242.947 67.3073 242.87 67.2351C242.793 67.1633 242.755 67.0696 242.755 66.9547V60.2464C242.755 60.141 242.793 60.0499 242.87 59.9728C242.947 59.896 243.038 59.8579 243.144 59.8579H243.676C243.782 59.8579 243.873 59.896 243.95 59.9728C244.027 60.0499 244.065 60.141 244.065 60.2464V62.9095H248.124V60.2464C248.124 60.141 248.163 60.0499 248.24 59.9728C248.316 59.896 248.408 59.8579 248.513 59.8579H249.046ZM254.66 59.7139C255.178 59.7139 255.639 59.7929 256.041 59.9512C256.445 60.1096 256.79 60.328 257.078 60.6062C257.366 60.8848 257.594 61.223 257.762 61.621C257.93 62.0194 258.033 62.4536 258.071 62.9238C258.081 63.0104 258.086 63.1136 258.086 63.2334C258.086 63.3536 258.086 63.4783 258.086 63.6075C258.086 63.7372 258.086 63.8619 258.086 63.9821C258.086 64.1019 258.081 64.2002 258.071 64.2769C258.023 64.7569 257.918 65.1934 257.755 65.5869C257.591 65.9803 257.366 66.3163 257.078 66.5945C256.79 66.873 256.445 67.0911 256.041 67.2495C255.639 67.4079 255.178 67.4872 254.66 67.4872C254.141 67.4872 253.681 67.4079 253.278 67.2495C252.875 67.0911 252.529 66.873 252.241 66.5945C251.953 66.3163 251.726 65.9803 251.557 65.5869C251.39 65.1934 251.286 64.7569 251.248 64.2769C251.238 64.2002 251.231 64.1019 251.226 63.9821C251.222 63.8619 251.219 63.7372 251.219 63.6075C251.219 63.4783 251.222 63.3536 251.226 63.2334C251.231 63.1136 251.238 63.0104 251.248 62.9238C251.286 62.4536 251.39 62.0194 251.557 61.621C251.726 61.223 251.953 60.8848 252.241 60.6062C252.529 60.328 252.875 60.1096 253.278 59.9512C253.681 59.7929 254.141 59.7139 254.66 59.7139ZM256.761 64.2051C256.781 64.0418 256.79 63.843 256.79 63.6075C256.79 63.3724 256.781 63.1687 256.761 62.996C256.733 62.708 256.67 62.4393 256.574 62.1898C256.478 61.9404 256.344 61.7242 256.171 61.542C255.998 61.3599 255.787 61.2158 255.538 61.11C255.288 61.0046 254.996 60.9517 254.66 60.9517C254.324 60.9517 254.031 61.0046 253.782 61.11C253.532 61.2158 253.321 61.3599 253.148 61.542C252.975 61.7242 252.841 61.9404 252.745 62.1898C252.649 62.4393 252.587 62.708 252.558 62.996C252.539 63.1687 252.529 63.3724 252.529 63.6075C252.529 63.843 252.539 64.0418 252.558 64.2051C252.587 64.4931 252.649 64.7618 252.745 65.0112C252.841 65.2607 252.975 65.4765 253.148 65.6591C253.321 65.8412 253.532 65.9852 253.782 66.0907C254.031 66.1965 254.324 66.249 254.66 66.249C254.996 66.249 255.288 66.1965 255.538 66.0907C255.787 65.9852 255.998 65.8412 256.171 65.6591C256.344 65.4765 256.478 65.2607 256.574 65.0112C256.67 64.7618 256.733 64.4931 256.761 64.2051Z" fill="#006CB4"/>
<defs>
<linearGradient id="paint0_linear_0_62" x1="221.459" y1="51.0174" x2="221.459" y2="26.4097" gradientUnits="userSpaceOnUse">
<stop stop-color="#006CB4"/>
<stop offset="1"/>
</linearGradient>
<linearGradient id="paint1_linear_0_62" x1="32.6521" y1="83.0503" x2="51.4106" y2="15.0521" gradientUnits="userSpaceOnUse">
<stop stop-color="#343175"/>
<stop offset="1" stop-color="#00B3DB"/>
</linearGradient>
</defs>
</svg>
