<svg width="20" height="98" viewBox="0 0 20 98" fill="none" xmlns="http://www.w3.org/2000/svg">
<path d="M13.88 96.872L13.94 96.872C14.2867 96.8587 14.6333 96.8387 14.98 96.812C14.8067 97.0387 14.6067 97.1987 14.38 97.292C14.14 97.372 13.9067 97.432 13.68 97.472C13.04 97.6454 12.4133 97.732 11.8 97.732C11.1867 97.732 10.58 97.672 9.98 97.552C9.80667 97.5254 9.62667 97.4987 9.44 97.472C9.25333 97.4454 8.93333 97.3787 8.48 97.272C8.01333 97.152 7.70667 97.0654 7.56 97.012C7.41333 96.9454 7.26 96.8787 7.1 96.812C6.48667 96.5854 5.88667 96.352 5.3 96.112C4.71333 95.8587 4.12 95.612 3.52 95.372C3.42667 95.3187 3.28667 95.292 3.1 95.292C3.15333 95.4654 3.20667 95.632 3.26 95.792C3.3 95.9387 3.32667 96.092 3.34 96.252C3.34 96.3854 3.34 96.532 3.34 96.692C3.34 96.8387 3.3 96.972 3.22 97.092C3.11333 97.2787 2.98667 97.3654 2.84 97.352C2.69333 97.3387 2.59333 97.232 2.54 97.032C2.40667 96.552 2.27333 96.0787 2.14 95.612C1.99333 95.132 1.87333 94.6387 1.78 94.132C1.62 93.2654 1.48 92.3987 1.36 91.532C1.24 90.6654 1.13333 89.7987 1.04 88.932C0.999998 88.5854 0.993332 88.2454 1.02 87.912C1.03333 87.5654 1.05333 87.2254 1.08 86.892C1.08 86.812 1.1 86.7254 1.14 86.632C1.16666 86.5387 1.21333 86.4654 1.28 86.412C1.37333 86.3187 1.48 86.232 1.6 86.152C1.72 86.072 1.83333 85.9987 1.94 85.932C2.00667 86.0254 2.07333 86.1254 2.14 86.232C2.20667 86.3387 2.27333 86.4454 2.34 86.552C2.31333 86.5654 2.29333 86.5787 2.28 86.592C2.25333 86.6054 2.22666 86.6187 2.2 86.632C2.13333 86.6187 2.07333 86.5987 2.02 86.572C1.95333 86.5454 1.86 86.512 1.74 86.472C1.72666 86.752 1.71333 87.0187 1.7 87.272C1.67333 87.5254 1.66667 87.772 1.68 88.012C1.73333 88.9587 1.83333 89.892 1.98 90.812C2.12666 91.7187 2.31333 92.612 2.54 93.492C2.55333 93.5854 2.60667 93.6654 2.7 93.732C2.78 93.7854 2.86667 93.8387 2.96 93.892C3.29333 94.0787 3.62 94.272 3.94 94.472C4.26 94.6587 4.6 94.8254 4.96 94.972C5.44 95.1854 5.93333 95.3787 6.44 95.552C6.68 95.6454 6.92 95.732 7.16 95.812C7.10667 95.492 7.07333 95.1587 7.06 94.812C7.06 94.452 7.09333 94.0387 7.16 93.572C7.22667 93.092 7.32667 92.6187 7.46 92.152C7.59333 91.672 7.76667 91.212 7.98 90.772C8.18 90.332 8.42 89.9587 8.7 89.652C8.98 89.332 9.30667 89.1054 9.68 88.972C10.04 88.8254 10.4467 88.812 10.9 88.932C11.2067 89.012 11.6133 89.1987 12.12 89.492C12.28 89.612 12.4333 89.7387 12.58 89.872C13.02 90.3254 13.3733 90.852 13.64 91.452C13.9067 92.0387 14.1 92.6654 14.22 93.332C14.2333 93.412 14.2467 93.4987 14.26 93.592C14.3267 93.8187 14.3933 94.052 14.46 94.292C14.5533 94.6254 14.5933 94.9787 14.58 95.352C14.5533 95.7254 14.4333 96.1054 14.22 96.492C14.1533 96.5987 14.0733 96.692 13.98 96.772C13.94 96.812 13.9067 96.8454 13.88 96.872ZM7.88 96.072C7.92 96.0854 7.96 96.0987 8 96.112L9.02 96.352C9.64667 96.5387 10.2867 96.6854 10.94 96.792C11.58 96.8987 12.24 96.9387 12.92 96.912C13.2 96.8987 13.4733 96.8854 13.74 96.872C13.7533 96.7387 13.76 96.5987 13.76 96.452C13.7733 96.2654 13.7733 96.0787 13.76 95.892C13.72 95.252 13.6067 94.6454 13.42 94.072C13.22 93.4987 12.9867 92.9387 12.72 92.392C12.5067 91.912 12.26 91.4587 11.98 91.032C11.7933 90.752 11.48 90.4787 11.04 90.212C10.6 89.932 10.14 89.8454 9.66 89.952C9.16667 90.0587 8.73333 90.332 8.36 90.772C7.98667 91.212 7.73333 91.812 7.6 92.572C7.50667 93.1854 7.50667 93.852 7.6 94.572C7.65333 95.0787 7.75333 95.572 7.9 96.052L7.88 96.072ZM3.2 83.0428C3.54666 82.8561 3.84666 82.7961 4.1 82.8628C4.35333 82.9161 4.6 83.0028 4.84 83.1228C5.41333 83.4161 5.98666 83.6895 6.56 83.9428C7.13333 84.1961 7.74667 84.3961 8.4 84.5428C8.45333 84.5695 8.50667 84.5895 8.56 84.6028C8.58667 84.2828 8.58 83.9695 8.54 83.6628C8.5 83.3428 8.47333 83.0228 8.46 82.7028C8.43333 82.3828 8.44 82.0561 8.48 81.7228C8.52 81.3895 8.62666 81.0295 8.8 80.6428C8.85333 80.7361 8.9 80.8028 8.94 80.8428C8.98 80.8828 9.00667 80.9295 9.02 80.9828C9.08667 81.5028 9.15333 82.0228 9.22 82.5428C9.27333 83.0628 9.34 83.5695 9.42 84.0628C9.44667 84.2895 9.50667 84.4895 9.6 84.6628C9.69333 84.8361 9.87333 84.9361 10.14 84.9628C10.6467 85.0295 11.14 85.1161 11.62 85.2228C12.1 85.3161 12.5933 85.3961 13.1 85.4628C13.22 85.4895 13.3533 85.4961 13.5 85.4828C13.6333 85.4695 13.7667 85.4361 13.9 85.3828C13.9533 85.3695 14.0067 85.3028 14.06 85.1828C14.1133 85.0628 14.1333 84.9761 14.12 84.9228C13.96 84.5761 13.7933 84.2295 13.62 83.8828C13.4467 83.5228 13.2733 83.1695 13.1 82.8228C12.9267 82.4228 12.78 82.0095 12.66 81.5828C12.54 81.1561 12.46 80.7161 12.42 80.2628C12.46 80.2228 12.5 80.2028 12.54 80.2028C12.5667 80.2428 12.5933 80.2761 12.62 80.3028C12.6467 80.3295 12.6667 80.3695 12.68 80.4228C12.84 81.0361 13.0333 81.6161 13.26 82.1628C13.4867 82.7095 13.7467 83.2361 14.04 83.7428C14.3333 84.2761 14.56 84.8495 14.72 85.4628C14.76 85.6095 14.7667 85.7561 14.74 85.9028C14.7133 86.0361 14.6533 86.1561 14.56 86.2628C14.4667 86.3695 14.36 86.4561 14.24 86.5228C14.1067 86.5895 13.96 86.6228 13.8 86.6228C13.3333 86.5695 12.8667 86.5095 12.4 86.4428C11.92 86.3761 11.4467 86.3095 10.98 86.2428C10.7533 86.1895 10.54 86.1495 10.34 86.1228C10.1267 86.0828 9.92667 86.0361 9.74 85.9828C9.67333 86.1561 9.62 86.3161 9.58 86.4628C9.52667 86.5961 9.46667 86.7295 9.4 86.8628C9.37333 86.9295 9.32667 86.9895 9.26 87.0428C9.19333 87.0961 9.13333 87.1295 9.08 87.1428C9.02667 87.1561 8.98 87.1361 8.94 87.0828C8.9 87.0295 8.87333 86.9695 8.86 86.9028C8.83333 86.7695 8.81333 86.6361 8.8 86.5028C8.78667 86.3695 8.78 86.2361 8.78 86.1028C8.76667 85.9961 8.74 85.9028 8.7 85.8228C8.66 85.7428 8.58 85.6828 8.46 85.6428C7.67333 85.4028 6.9 85.1495 6.14 84.8828C5.38 84.6161 4.62 84.3495 3.86 84.0828C3.75333 84.0695 3.62 84.0161 3.46 83.9228C3.56667 84.3095 3.66667 84.6761 3.76 85.0228C3.85333 85.3561 3.95333 85.6961 4.06 86.0428C4.07333 86.0828 4.08 86.1295 4.08 86.1828C4.08 86.2228 4.08667 86.2561 4.1 86.2828C4.23333 86.5495 4.14666 86.7828 3.84 86.9828C3.54666 87.1561 3.34666 87.0761 3.24 86.7428C2.89333 85.6628 2.6 84.5628 2.36 83.4428C2.10666 82.3228 1.95333 81.1495 1.9 79.9228C1.88666 79.5361 1.88666 79.1495 1.9 78.7628C1.9 78.3761 1.91333 77.9895 1.94 77.6028C1.95333 77.4161 2.03333 77.2495 2.18 77.1028C2.32666 76.9561 2.48666 76.8695 2.66 76.8428C2.59333 77.4028 2.56666 77.9495 2.58 78.4828C2.58 79.0028 2.60666 79.5161 2.66 80.0228C2.71333 80.5295 2.79333 81.0361 2.9 81.5428C2.99333 82.0361 3.09333 82.5361 3.2 83.0428ZM11.68 71.8842C11.6533 71.9909 11.6333 72.0709 11.62 72.1242C11.5933 72.1642 11.5867 72.1975 11.6 72.2242C11.5067 72.9042 11.4933 73.5709 11.56 74.2242C11.6267 74.8642 11.7533 75.5109 11.94 76.1642C12.0467 76.4575 12.18 76.7309 12.34 76.9842C12.5 77.2375 12.7267 77.4442 13.02 77.6042C13.1133 77.6709 13.22 77.7242 13.34 77.7642C13.46 77.8042 13.5667 77.8042 13.66 77.7642C13.7267 77.7509 13.7867 77.6909 13.84 77.5842C13.88 77.4642 13.9133 77.3509 13.94 77.2442C13.9533 77.1242 13.96 77.0175 13.96 76.9242C13.96 76.8175 13.9533 76.7042 13.94 76.5842C13.8733 75.9975 13.72 75.4509 13.48 74.9442C13.2267 74.4375 12.9533 73.9375 12.66 73.4442C12.5267 73.2042 12.38 72.9642 12.22 72.7242C12.0467 72.4709 11.8667 72.1909 11.68 71.8842ZM7.5 74.8042C7.24666 74.2042 6.97333 73.6109 6.68 73.0242C6.34666 72.3842 5.99333 71.7775 5.62 71.2042C5.23333 70.6175 4.84 70.0442 4.44 69.4842C4.32 69.2975 4.16666 69.1309 3.98 68.9842C3.79333 68.8242 3.6 68.6909 3.4 68.5842C3.08 68.3975 2.75333 68.3709 2.42 68.5042C2.08666 68.6242 1.82 68.8842 1.62 69.2842C1.43333 69.6442 1.28666 70.1309 1.18 70.7442C1.06 71.3442 1.06666 72.0442 1.2 72.8442C1.33333 73.6309 1.58 74.3909 1.94 75.1242C2.28666 75.8575 2.72666 76.5109 3.26 77.0842C3.79333 77.6575 4.36667 78.0442 4.98 78.2442C4.94 78.2309 4.87333 78.2642 4.78 78.3442C4.67333 78.4242 4.55333 78.5042 4.42 78.5842C4.27333 78.6509 4.10666 78.7042 3.92 78.7442C3.73333 78.7842 3.54 78.7575 3.34 78.6642C2.94 78.4909 2.58666 78.2309 2.28 77.8842C1.96 77.5375 1.69333 77.1375 1.48 76.6842C1.25333 76.2175 1.07333 75.7175 0.939998 75.1842C0.806665 74.6509 0.713331 74.1242 0.659998 73.6042C0.593331 73.0709 0.566665 72.5509 0.579998 72.0442C0.579998 71.8442 0.593331 71.5975 0.619997 71.3042C0.633331 71.0109 0.699998 70.6575 0.819997 70.2442C0.953331 69.7642 1.14666 69.3309 1.4 68.9442C1.64 68.5575 1.99333 68.2509 2.46 68.0242C2.79333 67.8509 3.12 67.7642 3.44 67.7642C3.74666 67.7509 4.02666 67.8375 4.28 68.0242C4.53333 68.2109 4.77333 68.4109 5 68.6242C5.21333 68.8375 5.4 69.0709 5.56 69.3242C5.93333 69.9109 6.28666 70.5042 6.62 71.1042C6.94 71.6909 7.27333 72.2842 7.62 72.8842C7.64666 72.9775 7.68666 73.0309 7.74 73.0442C7.86 72.7642 7.97333 72.4975 8.08 72.2442C8.17333 71.9775 8.29333 71.7175 8.44 71.4642C8.77333 70.9309 9.21333 70.5442 9.76 70.3042C10.3067 70.0509 10.8267 70.0109 11.32 70.1842C11.6533 70.2909 11.94 70.4642 12.18 70.7042C12.4067 70.9309 12.62 71.1909 12.82 71.4842C13.2467 72.0709 13.58 72.7042 13.82 73.3842C14.06 74.0509 14.2733 74.7375 14.46 75.4442C14.5533 75.9775 14.5733 76.4175 14.52 76.7642C14.4667 77.1109 14.4067 77.3709 14.34 77.5442C14.26 77.7042 14.16 77.8375 14.04 77.9442C13.9333 78.0242 13.8333 78.0909 13.74 78.1442L13.72 78.1642C13.48 78.2709 13.2467 78.2842 13.02 78.2042C12.6867 78.0842 12.38 77.8242 12.1 77.4242C11.6467 76.7575 11.34 76.0642 11.18 75.3442C11.02 74.6109 10.9667 73.8509 11.02 73.0642C11.06 72.8509 11.1 72.6375 11.14 72.4242C11.1667 72.1975 11.1867 71.9842 11.2 71.7842C11.1867 71.6642 11.1667 71.5375 11.14 71.4042C11.1267 71.3242 11.0933 71.2509 11.04 71.1842C11 71.1442 10.96 71.1109 10.92 71.0842C10.7333 70.9509 10.5267 70.8642 10.3 70.8242C10.0733 70.7842 9.85333 70.7975 9.64 70.8642C9.42666 70.9175 9.23333 71.0309 9.06 71.2042C8.87333 71.3775 8.72666 71.6109 8.62 71.9042C8.43333 72.3975 8.31333 72.8775 8.26 73.3442C8.22 73.7709 8.25333 74.1575 8.36 74.5042C8.46666 74.8509 8.54666 75.1575 8.6 75.4242C8.62666 75.5842 8.62666 75.7242 8.6 75.8442C8.56 75.9642 8.44666 76.0642 8.26 76.1442C8.1 76.2109 7.98666 76.2309 7.92 76.2042C7.84 76.1775 7.77333 76.0509 7.72 75.8242C7.66666 75.4775 7.59333 75.1375 7.5 74.8042ZM2.2 49.7992C2.13333 49.7859 2.07333 49.7659 2.02 49.7392C1.95333 49.7125 1.86 49.6792 1.74 49.6392C1.72666 49.9192 1.71333 50.1859 1.7 50.4392C1.67333 50.6925 1.66666 50.9392 1.68 51.1792C1.73333 52.1259 1.83333 53.0592 1.98 53.9792C2.12666 54.8859 2.31333 55.7792 2.54 56.6592C2.55333 56.7525 2.60666 56.8325 2.7 56.8992C2.78 56.9525 2.86666 57.0059 2.96 57.0592C3.29333 57.2459 3.62 57.4392 3.94 57.6392C4.26 57.8259 4.6 57.9925 4.96 58.1392C5.44 58.3525 5.94 58.5525 6.46 58.7392C6.96666 58.9125 7.48 59.0925 8 59.2792L9.02 59.5192C9.64666 59.7059 10.2867 59.8525 10.94 59.9592C11.58 60.0659 12.24 60.1059 12.92 60.0792C13.2667 60.0659 13.6133 60.0525 13.96 60.0392C14.2933 60.0259 14.6333 60.0059 14.98 59.9792C14.8067 60.2059 14.6067 60.3659 14.38 60.4592C14.14 60.5392 13.9067 60.5992 13.68 60.6392C13.04 60.8125 12.4133 60.8992 11.8 60.8992C11.1867 60.8992 10.58 60.8392 9.98 60.7192C9.80666 60.6925 9.62666 60.6659 9.44 60.6392C9.25333 60.6125 8.93333 60.5459 8.48 60.4392C8.01333 60.3192 7.70666 60.2325 7.56 60.1792C7.41333 60.1125 7.26 60.0459 7.1 59.9792C6.48666 59.7525 5.88666 59.5192 5.3 59.2792C4.71333 59.0259 4.12 58.7792 3.52 58.5392C3.42666 58.4859 3.28666 58.4592 3.1 58.4592C3.15333 58.6325 3.20666 58.7992 3.26 58.9592C3.3 59.1059 3.32666 59.2592 3.34 59.4192C3.34 59.5525 3.34 59.6992 3.34 59.8592C3.34 60.0059 3.3 60.1392 3.22 60.2592C3.11333 60.4459 2.98666 60.5325 2.84 60.5192C2.69333 60.5059 2.59333 60.3992 2.54 60.1992C2.40666 59.7192 2.27333 59.2459 2.14 58.7792C1.99333 58.2992 1.87333 57.8059 1.78 57.2992C1.62 56.4325 1.48 55.5659 1.36 54.6992C1.24 53.8325 1.13333 52.9659 1.04 52.0992C0.999997 51.7525 0.99333 51.4125 1.02 51.0792C1.03333 50.7325 1.05333 50.3925 1.08 50.0592C1.08 49.9792 1.1 49.8925 1.14 49.7992C1.16666 49.7059 1.21333 49.6325 1.28 49.5792C1.37333 49.4859 1.48 49.3992 1.6 49.3192C1.72 49.2392 1.83333 49.1659 1.94 49.0992C2.00666 49.1925 2.07333 49.2925 2.14 49.3992C2.20666 49.5059 2.27333 49.6125 2.34 49.7192C2.31333 49.7325 2.29333 49.7459 2.28 49.7592C2.25333 49.7725 2.22666 49.7859 2.2 49.7992ZM10.92 52.312C11.5067 52.4187 12.0867 52.5454 12.66 52.692C13.22 52.8387 13.7933 52.9854 14.38 53.132C14.4467 53.1454 14.52 53.1454 14.6 53.132C14.6667 53.1054 14.7333 53.092 14.8 53.092C14.68 53.252 14.5267 53.3654 14.34 53.432C14.14 53.4987 13.9067 53.5454 13.64 53.572C12.92 53.612 12.24 53.5587 11.6 53.412C10.9467 53.2654 10.3 53.0987 9.66 52.912C9.15333 52.7787 8.66 52.6254 8.18 52.452C7.68666 52.2787 7.18666 52.152 6.68 52.072C6.37333 52.032 6.08666 51.9787 5.82 51.912C5.54 51.8454 5.26 51.7587 4.98 51.652C4.68666 51.5187 4.53333 51.372 4.52 51.212C4.50666 51.052 4.59333 50.8187 4.78 50.512C5.24666 50.5254 5.69333 50.592 6.12 50.712C6.54666 50.8187 6.96666 50.9454 7.38 51.092C7.79333 51.2387 8.20666 51.392 8.62 51.552C9.02 51.712 9.44 51.8454 9.88 51.952C9.94666 51.9654 10.0067 51.992 10.06 52.032C10.1 52.0587 10.1533 52.0854 10.22 52.112C10.3533 51.352 10.4533 50.5787 10.52 49.792C10.5733 48.992 10.56 48.212 10.48 47.452C10.4 46.6787 10.2267 45.932 9.96 45.212C9.69333 44.4787 9.3 43.792 8.78 43.152C8.12666 42.3654 7.43333 41.8187 6.7 41.512C5.96666 41.192 5.27333 41.1054 4.62 41.252C3.95333 41.3987 3.37333 41.772 2.88 42.372C2.37333 42.9587 2.03333 43.7654 1.86 44.792C1.72666 45.6054 1.72 46.4987 1.84 47.472C1.96 48.4454 2.18666 49.392 2.52 50.312C2.84 51.232 3.26 52.0654 3.78 52.812C4.28666 53.5587 4.86 54.112 5.5 54.472C5.44666 54.7254 5.32666 54.8987 5.14 54.992C4.95333 55.0987 4.75333 55.0987 4.54 54.992C4.06 54.7387 3.66666 54.4254 3.36 54.052C3.04 53.6654 2.76666 53.2387 2.54 52.772C2.15333 52.012 1.82666 51.2254 1.56 50.412C1.29333 49.5854 1.14666 48.7187 1.12 47.812C1.12 47.3187 1.16666 46.7587 1.26 46.132C1.34 45.492 1.47333 44.852 1.66 44.212C1.83333 43.572 2.06 42.9587 2.34 42.372C2.62 41.772 2.95333 41.2654 3.34 40.852C3.71333 40.4254 4.14666 40.1187 4.64 39.932C5.13333 39.7454 5.68 39.732 6.28 39.892C7.2 40.1454 7.96 40.572 8.56 41.172C9.14666 41.772 9.62 42.472 9.98 43.272C10.34 44.0587 10.6 44.9054 10.76 45.812C10.92 46.7054 11.02 47.572 11.06 48.412C11.0867 49.2387 11.08 49.9987 11.04 50.692C11 51.3854 10.96 51.9254 10.92 52.312ZM11.8 33.1373C11.8267 33.404 11.8533 33.6573 11.88 33.8973C11.8933 34.124 11.9133 34.344 11.94 34.5573C11.9667 34.8507 12.0067 35.1373 12.06 35.4173C12.1 35.6973 12.1267 35.9773 12.14 36.2573C12.14 36.5373 12.2133 36.744 12.36 36.8773C12.5067 36.9973 12.7133 37.0907 12.98 37.1573C13.2067 37.1973 13.4267 37.2573 13.64 37.3373C13.8533 37.404 14.06 37.4707 14.26 37.5373C14.42 37.5907 14.54 37.6707 14.62 37.7773C14.6867 37.884 14.6733 38.0107 14.58 38.1573C14.54 38.2373 14.4933 38.2907 14.44 38.3173C14.3867 38.344 14.3333 38.3573 14.28 38.3573C14.2133 38.344 14.1533 38.3307 14.1 38.3173C14.0333 38.2907 13.9667 38.2707 13.9 38.2573C13.66 38.1907 13.42 38.1307 13.18 38.0773C12.94 38.024 12.7067 37.9707 12.48 37.9173C12.4533 38.0907 12.46 38.2707 12.5 38.4573C12.54 38.6307 12.5667 38.804 12.58 38.9773C12.5933 39.1373 12.58 39.304 12.54 39.4773C12.5 39.6373 12.3867 39.7973 12.2 39.9573C12.1467 39.9707 12.08 39.9773 12 39.9773C11.9467 39.7373 11.8933 39.4973 11.84 39.2573C11.7867 39.0173 11.76 38.784 11.76 38.5573C11.7867 38.1573 11.6933 37.864 11.48 37.6773C11.2667 37.4773 10.9867 37.3173 10.64 37.1973C9.44 36.7573 8.3 36.2573 7.22 35.6973C6.14 35.124 5.07333 34.5173 4.02 33.8773C3.56666 33.6107 3.12666 33.3307 2.7 33.0373C2.26 32.744 1.82666 32.444 1.4 32.1373C1.13333 31.9507 0.973329 31.764 0.919996 31.5773C0.853329 31.3907 0.873329 31.184 0.979996 30.9573C1.03333 30.8907 1.09333 30.8307 1.16 30.7773C1.21333 30.7107 1.30666 30.664 1.44 30.6373C1.82666 30.544 2.20666 30.4907 2.58 30.4773C2.94 30.4507 3.3 30.4573 3.66 30.4973C4.02 30.524 4.38 30.5707 4.74 30.6373C5.08666 30.704 5.44 30.764 5.8 30.8173C6.38666 30.9107 6.96 31.0173 7.52 31.1373C8.08 31.244 8.64666 31.3573 9.22 31.4773C10.0067 31.624 10.7867 31.784 11.56 31.9573C12.32 32.1307 13.1 32.284 13.9 32.4173C14.1933 32.484 14.4933 32.524 14.8 32.5373C15.1067 32.5507 15.4133 32.5707 15.72 32.5973C15.8133 32.6107 15.8933 32.6373 15.96 32.6773C16.0267 32.7173 16.1067 32.7507 16.2 32.7773C16.1333 32.8707 16.0733 32.9707 16.02 33.0773C15.9667 33.1707 15.9 33.2307 15.82 33.2573C15.46 33.444 15.0933 33.5573 14.72 33.5973C14.3467 33.624 13.9667 33.604 13.58 33.5373C13.2867 33.484 13 33.424 12.72 33.3573C12.4267 33.2773 12.12 33.204 11.8 33.1373ZM1.96 31.4973C1.94666 31.524 1.94 31.5507 1.94 31.5773C1.94 31.5907 1.92666 31.6107 1.9 31.6373C3.39333 32.6373 4.92666 33.5707 6.5 34.4373C8.06 35.304 9.73333 36.0507 11.52 36.6773C11.4933 36.0907 11.4667 35.524 11.44 34.9773C11.4133 34.4173 11.3867 33.8573 11.36 33.2973C11.36 33.244 11.3333 33.1973 11.28 33.1573C11.2267 33.104 11.1733 33.0707 11.12 33.0573C10.6533 32.924 10.18 32.7973 9.7 32.6773C9.22 32.5573 8.73333 32.4507 8.24 32.3573C7.53333 32.2107 6.83333 32.0707 6.14 31.9373C5.43333 31.7907 4.72 31.664 4 31.5573C3.66666 31.5173 3.33333 31.4973 3 31.4973C2.65333 31.4973 2.30666 31.4973 1.96 31.4973ZM9.26 27.7777L9.26 21.4777C7.94 21.251 6.65333 20.9577 5.4 20.5977C4.13333 20.2243 2.86 19.8577 1.58 19.4977C1.46 19.471 1.35333 19.4443 1.26 19.4177C1.15333 19.3777 1.05333 19.331 0.959995 19.2777C0.893329 19.2377 0.826662 19.191 0.759996 19.1377C0.693329 19.0843 0.666662 19.0243 0.679995 18.9577C0.679995 18.891 0.719995 18.8177 0.799995 18.7377C0.879996 18.6577 0.953329 18.6043 1.02 18.5777C1.18 18.5377 1.34666 18.5043 1.52 18.4777C1.68 18.4377 1.82666 18.431 1.96 18.4577C2.8 18.6843 3.61999 18.9177 4.41999 19.1577C5.20666 19.3977 6.01333 19.6177 6.84 19.8177C7.56 20.0043 8.27333 20.171 8.98 20.3177C9.68666 20.4643 10.4067 20.591 11.14 20.6977C11.78 20.791 12.44 20.8443 13.12 20.8577C13.7867 20.871 14.48 20.8977 15.2 20.9377C14.9733 21.031 14.76 21.131 14.56 21.2377C14.36 21.331 14.1667 21.3977 13.98 21.4377C13.3267 21.611 12.6867 21.691 12.06 21.6777C11.4333 21.651 10.8 21.611 10.16 21.5577C10.1067 21.5443 10.0533 21.5377 10 21.5377C9.93333 21.5243 9.84666 21.5177 9.74 21.5177C9.76666 22.1443 9.79333 22.751 9.82 23.3377C9.84666 23.9243 9.89333 24.511 9.96 25.0977C9.98666 25.5243 10.0333 25.9443 10.1 26.3577C10.1533 26.771 10.2133 27.191 10.28 27.6177C10.2933 27.6977 10.3333 27.7777 10.4 27.8577C10.4667 27.9377 10.5467 27.9843 10.64 27.9977C11.4133 28.1043 12.1867 28.151 12.96 28.1377C13.7333 28.111 14.5267 27.9777 15.34 27.7377C15.4067 27.7243 15.48 27.711 15.56 27.6977C15.64 27.6843 15.72 27.671 15.8 27.6577C15.4533 28.0843 15.0667 28.371 14.64 28.5177C14.2133 28.6643 13.7733 28.771 13.32 28.8377C12.8933 28.9043 12.46 28.951 12.02 28.9777C11.58 29.0043 11.1267 29.031 10.66 29.0577C10.6733 29.1243 10.6933 29.1977 10.72 29.2777C10.7333 29.3443 10.7267 29.411 10.7 29.4777C10.6733 29.5843 10.6267 29.6777 10.56 29.7577C10.48 29.8377 10.4067 29.9177 10.34 29.9977C10.2867 29.9577 10.2267 29.9243 10.16 29.8977C10.0933 29.8577 10.0333 29.8243 9.98 29.7977C9.95333 29.7577 9.92666 29.7177 9.9 29.6777C9.87333 29.6377 9.86 29.591 9.86 29.5377C9.87333 29.3643 9.85333 29.231 9.8 29.1377C9.73333 29.0443 9.65333 28.9777 9.56 28.9377C9.45333 28.8843 9.33333 28.851 9.2 28.8377C9.06666 28.811 8.93333 28.7843 8.8 28.7577C8.18666 28.611 7.58666 28.451 7 28.2777C6.4 28.1043 5.8 27.9377 5.2 27.7777C4.72 27.6443 4.24666 27.5043 3.78 27.3577C3.31333 27.1977 2.85333 27.0243 2.4 26.8377C2.33333 26.8243 2.26 26.8177 2.18 26.8177C2.08666 26.8043 2.00666 26.7843 1.94 26.7577C1.87333 26.7177 1.83333 26.671 1.82 26.6177C1.79333 26.551 1.80666 26.4577 1.86 26.3377C1.96666 26.111 2.12 25.991 2.32 25.9777C2.52 25.9643 2.7 25.9843 2.86 26.0377C3.60666 26.251 4.34 26.4777 5.06 26.7177C5.78 26.9443 6.52 27.1577 7.28 27.3577C7.6 27.451 7.93333 27.531 8.28 27.5977C8.61333 27.651 8.94 27.711 9.26 27.7777ZM1.12 6.9964C1.22666 6.88974 1.30666 6.80307 1.35999 6.7364C1.39999 6.6564 1.43333 6.60307 1.45999 6.5764C1.69999 6.58974 1.91333 6.60974 2.09999 6.6364C2.27333 6.64974 2.45333 6.66307 2.63999 6.6764C2.71999 6.70307 2.78666 6.72974 2.83999 6.7564C3.81333 7.44974 4.89333 8.06974 6.08 8.6164C7.26666 9.16307 8.46666 9.6364 9.68 10.0364C10.88 10.4364 12.04 10.7631 13.16 11.0164C14.2667 11.2697 15.24 11.4564 16.08 11.5764C15.9467 11.5764 15.8333 11.6031 15.74 11.6564C15.6333 11.7097 15.54 11.7631 15.46 11.8164C15.3667 11.8697 15.2733 11.9164 15.18 11.9564C15.0733 11.9964 14.96 12.0097 14.84 11.9964C13.4 11.7297 12.02 11.4097 10.7 11.0364C9.36666 10.6631 7.99333 10.2164 6.58 9.6964C6.71333 9.80307 6.81333 9.88307 6.88 9.9364C6.94666 9.98974 7.01333 10.0497 7.08 10.1164C7.6 10.5564 8.19333 10.9764 8.86 11.3764C9.51333 11.7764 10.1733 12.1897 10.84 12.6164C11.4933 13.0431 12.12 13.5031 12.72 13.9964C13.3067 14.4764 13.7867 15.0231 14.16 15.6364C14.4267 16.0631 14.4867 16.4564 14.34 16.8164C14.18 17.1764 13.92 17.4897 13.56 17.7564C13.2 18.0097 12.78 18.2097 12.3 18.3564C11.8067 18.4897 11.36 18.5431 10.96 18.5164C10.1333 18.4764 9.33333 18.3697 8.56 18.1964C7.77333 18.0097 6.99333 17.7897 6.22 17.5364C5.62 17.3497 5.03333 17.1364 4.46 16.8964C3.88666 16.6431 3.31333 16.4031 2.73999 16.1764C2.61999 16.1231 2.50666 16.0564 2.4 15.9764C2.29333 15.8831 2.19333 15.7897 2.09999 15.6964C1.97999 15.5497 1.95333 15.4097 2.01999 15.2764C2.07333 15.1431 2.20666 15.0697 2.42 15.0564C2.52666 15.0564 2.63333 15.0631 2.73999 15.0764C2.83333 15.0897 2.92 15.1164 3 15.1564C3.75999 15.4364 4.49999 15.7297 5.22 16.0364C5.94 16.3431 6.68 16.6097 7.44 16.8364C7.82666 16.9431 8.27333 17.0564 8.78 17.1764C9.27333 17.2831 9.78 17.3697 10.3 17.4364C10.82 17.5031 11.3267 17.5364 11.82 17.5364C12.3133 17.5364 12.74 17.4764 13.1 17.3564C13.38 17.2764 13.54 17.1431 13.58 16.9564C13.62 16.7564 13.5867 16.5364 13.48 16.2964C13.3733 16.0564 13.2133 15.8031 13 15.5364C12.7867 15.2697 12.5733 15.0231 12.36 14.7964C12.1333 14.5697 11.92 14.3697 11.72 14.1964C11.52 14.0231 11.3867 13.9097 11.32 13.8564C10.6 13.3231 9.88 12.8031 9.16 12.2964C8.42666 11.7764 7.69333 11.2564 6.96 10.7364C6.58666 10.4697 6.21333 10.2231 5.84 9.9964C5.45333 9.7564 5.08 9.50307 4.72 9.2364C4.44 9.02307 4.14666 8.8364 3.83999 8.6764C3.51999 8.50307 3.20666 8.3364 2.89999 8.1764C2.58 8.00307 2.27333 7.82307 1.97999 7.6364C1.67333 7.44974 1.38666 7.2364 1.12 6.9964ZM14.4 2.33125C14.6533 2.58458 14.92 2.76458 15.2 2.87125C15.4667 2.96458 15.74 3.05125 16.02 3.13125C16.2867 3.21125 16.56 3.23125 16.84 3.19125C17.1333 3.13792 17.4067 3.04458 17.66 2.91125C17.9133 2.76458 18.1333 2.58458 18.32 2.37125C18.52 2.14458 18.66 1.89792 18.74 1.63125C18.7933 1.48458 18.8067 1.35792 18.78 1.25125C18.7533 1.13125 18.66 1.05125 18.5 1.01125C18.3533 0.984583 18.2067 0.95125 18.06 0.91125C17.9267 0.87125 17.7933 0.864584 17.66 0.89125C17.3667 0.93125 17.0733 0.997917 16.78 1.09125C16.5 1.18458 16.22 1.29792 15.94 1.43125C15.6733 1.55125 15.4133 1.69125 15.16 1.85125C14.9067 2.01125 14.6533 2.17125 14.4 2.33125ZM14.04 2.45125C13.9467 2.49125 13.8533 2.52458 13.76 2.55125C13.1733 2.75125 12.54 2.86458 11.86 2.89125C10.7133 2.94458 9.60666 2.87125 8.53999 2.67125C7.47333 2.47125 6.40666 2.25792 5.33999 2.03125C4.99333 1.95125 4.65333 1.87792 4.31999 1.81125C5.57333 2.23792 6.84 2.65125 8.11999 3.05125C9.29333 3.42458 10.8267 3.99125 12.72 4.75125C12.9467 4.85792 13.16 4.97792 13.36 5.11125C13.56 5.24458 13.7333 5.39125 13.88 5.55125C14.0267 5.69792 14.12 5.85792 14.16 6.03125C14.1733 6.08458 14.18 6.13792 14.18 6.19125C14.2067 6.39125 14.1667 6.56458 14.06 6.71125C14.0067 6.79125 13.84 6.94458 13.56 7.17125C13.2 7.43792 12.78 7.64458 12.3 7.79125C11.8067 7.92458 11.36 7.97792 10.96 7.95125C10.1333 7.91125 9.33333 7.80458 8.56 7.63125C7.77333 7.44458 6.99333 7.22458 6.22 6.97125C5.61999 6.78458 5.03333 6.57125 4.46 6.33125C3.88666 6.07792 3.31333 5.83792 2.73999 5.61125C2.61999 5.55792 2.50666 5.49125 2.4 5.41125C2.29333 5.31792 2.19333 5.22458 2.09999 5.13125C1.97999 4.98458 1.95333 4.84458 2.01999 4.71125C2.07333 4.57792 2.20666 4.50458 2.41999 4.49125C2.52666 4.49125 2.63333 4.49792 2.73999 4.51125C2.83333 4.52458 2.91999 4.55125 2.99999 4.59125C3.75999 4.87125 4.49999 5.16458 5.21999 5.47125C5.94 5.77792 6.68 6.04458 7.43999 6.27125C7.82666 6.37792 8.27333 6.49125 8.77999 6.61125C9.27333 6.71792 9.78 6.80458 10.3 6.87125C10.82 6.93792 11.3267 6.97125 11.82 6.97125C12.3133 6.97125 12.74 6.91125 13.1 6.79125C13.3267 6.73792 13.48 6.61792 13.56 6.43125C13.5733 6.40458 13.58 6.38458 13.58 6.37125C13.46 6.10458 13.2933 5.91125 13.08 5.79125C12.8533 5.67125 12.6067 5.56458 12.34 5.47125C11.3533 5.07125 10.58 4.77792 10.02 4.59125C9.44666 4.40458 8.68 4.16458 7.71999 3.87125C6.75999 3.57792 5.80666 3.28458 4.85999 2.99125C3.89999 2.68458 2.93999 2.34458 1.97999 1.97125C1.47333 1.75792 1.08666 1.41792 0.819994 0.951251C0.833328 0.924584 0.846661 0.904584 0.859995 0.891251C0.846661 0.771251 0.879995 0.637917 0.959995 0.491251C0.999995 0.424584 1.06666 0.371251 1.15999 0.331251C1.25333 0.291251 1.32666 0.277917 1.38 0.291251C2.47333 0.504584 3.55333 0.724584 4.62 0.951251C5.67333 1.16458 6.74 1.36458 7.82 1.55125C8.64666 1.68458 9.48666 1.79125 10.34 1.87125C11.1933 1.95125 12.0667 1.92458 12.96 1.79125C13.5333 1.69792 14.04 1.53792 14.48 1.31125C14.9067 1.07125 15.2867 0.864584 15.62 0.69125C15.9533 0.504583 16.2133 0.37125 16.4 0.29125C16.76 0.157917 17.1333 0.0845835 17.52 0.0712503C17.9067 0.0579167 18.28 0.19125 18.64 0.47125C18.8133 0.59125 18.9467 0.744583 19.04 0.93125C19.1333 1.10458 19.1867 1.29792 19.2 1.51125C19.2267 1.71125 19.2067 1.91125 19.14 2.11125C19.0867 2.31125 18.9933 2.49125 18.86 2.65125C18.4467 3.18458 17.98 3.51125 17.46 3.63125C16.9533 3.73792 16.4 3.67792 15.8 3.45125C15.5467 3.34458 15.3 3.21792 15.06 3.07125C14.82 2.92458 14.5733 2.78458 14.32 2.65125L14.04 2.45125Z" fill="black"/>
</svg>
