<svg width="24" height="24" viewBox="0 0 24 24" fill="none" xmlns="http://www.w3.org/2000/svg">
<path d="M21.6 11.4001L13.8375 3.5251C13.5 3.1876 12.975 3.1876 12.6375 3.5251C12.3 3.8626 12.3 4.3876 12.6375 4.7251L18.9375 11.1376H2.99999C2.54999 11.1376 2.17499 11.5126 2.17499 11.9626C2.17499 12.4126 2.54999 12.8251 2.99999 12.8251H19.0125L12.6375 19.3126C12.3 19.6501 12.3 20.1751 12.6375 20.5126C12.7875 20.6626 13.0125 20.7376 13.2375 20.7376C13.4625 20.7376 13.6875 20.6626 13.8375 20.4751L21.6 12.6001C21.9375 12.2626 21.9375 11.7376 21.6 11.4001Z" fill="url(#paint0_linear_0_174)"/>
<defs>
<linearGradient id="paint0_linear_0_174" x1="12.014" y1="3.27197" x2="12.014" y2="20.7376" gradientUnits="userSpaceOnUse">
<stop stop-color="#E8F7FE"/>
<stop offset="1" stop-color="#F3FAFD"/>
</linearGradient>
</defs>
</svg>
