<svg width="24" height="24" viewBox="0 0 24 24" fill="none" xmlns="http://www.w3.org/2000/svg">
<path d="M2.40002 12.5999L10.1625 20.4749C10.5 20.8124 11.025 20.8124 11.3625 20.4749C11.7 20.1374 11.7 19.6124 11.3625 19.2749L5.06251 12.8624L21 12.8624C21.45 12.8624 21.825 12.4874 21.825 12.0374C21.825 11.5874 21.45 11.1749 21 11.1749L4.98751 11.1749L11.3625 4.6874C11.7 4.3499 11.7 3.8249 11.3625 3.4874C11.2125 3.3374 10.9875 3.2624 10.7625 3.2624C10.5375 3.2624 10.3125 3.3374 10.1625 3.5249L2.40002 11.3999C2.06251 11.7374 2.06251 12.2624 2.40002 12.5999Z" fill="url(#paint0_linear_0_177)"/>
<defs>
<linearGradient id="paint0_linear_0_177" x1="11.986" y1="20.728" x2="11.986" y2="3.2624" gradientUnits="userSpaceOnUse">
<stop stop-color="#E8F7FE"/>
<stop offset="1" stop-color="#F3FAFD"/>
</linearGradient>
</defs>
</svg>
