<svg width="37" height="37" viewBox="0 0 37 37" fill="none" xmlns="http://www.w3.org/2000/svg">
<path d="M18.5 0C8.28258 0 0 8.28287 0 18.5C0 28.7177 8.28258 37 18.5 37C28.7174 37 37 28.7177 37 18.5C37 8.28287 28.7174 0 18.5 0ZM18.5 9.25C19.7772 9.25 20.8125 10.2854 20.8125 11.5625C20.8125 12.8402 19.7772 13.875 18.5 13.875C17.2228 13.875 16.1875 12.8402 16.1875 11.5625C16.1875 10.2854 17.2228 9.25 18.5 9.25ZM21.9688 27.75H15.0312C14.3927 27.75 13.875 27.2329 13.875 26.5938C13.875 25.9552 14.3927 25.4375 15.0312 25.4375H16.1875V18.5H15.0312C14.3927 18.5 13.875 17.9829 13.875 17.3438C13.875 16.7052 14.3927 16.1875 15.0312 16.1875H19.6562C20.2948 16.1875 20.8125 16.7052 20.8125 17.3438V25.4375H21.9688C22.6073 25.4375 23.125 25.9552 23.125 26.5938C23.125 27.2329 22.6073 27.75 21.9688 27.75Z" fill="white"/>
</svg>
